<svg width="405" height="135" viewBox="0 0 405 135" fill="none" xmlns="http://www.w3.org/2000/svg">
<line x1="92" y1="54.5" x2="101" y2="54.5" stroke="#D9D9D9"/>
<line x1="105" y1="54.5" x2="114" y2="54.5" stroke="#D9D9D9"/>
<line x1="118" y1="54.5" x2="127" y2="54.5" stroke="#D9D9D9"/>
<line x1="131" y1="54.5" x2="140" y2="54.5" stroke="#D9D9D9"/>
<line x1="144" y1="54.5" x2="153" y2="54.5" stroke="#D9D9D9"/>
<line x1="262" y1="54.5" x2="271" y2="54.5" stroke="#D9D9D9"/>
<line x1="275" y1="54.5" x2="284" y2="54.5" stroke="#D9D9D9"/>
<line x1="288" y1="54.5" x2="297" y2="54.5" stroke="#D9D9D9"/>
<line x1="301" y1="54.5" x2="310" y2="54.5" stroke="#D9D9D9"/>
<line x1="314" y1="54.5" x2="323" y2="54.5" stroke="#D9D9D9"/>
<rect width="45.4974" height="45.8247" rx="4" transform="matrix(0.866025 -0.5 2.20305e-08 1 168 24.7487)" stroke="url(#paint0_linear_59_390)" stroke-width="5" stroke-linejoin="round"/>
<rect width="45.6231" height="45.6231" rx="4" transform="matrix(0.866025 -0.5 0.866025 0.5 168 70.5723)" stroke="url(#paint1_linear_59_390)" stroke-width="5" stroke-linejoin="bevel"/>
<rect width="31.5784" height="31.5784" transform="matrix(0.866025 -0.5 2.20305e-08 1 207.435 47.5544)" fill="url(#paint2_linear_59_390)"/>
<rect width="31.5784" height="31.5784" transform="matrix(0.866025 0.5 -2.20305e-08 1 180.087 31.7652)" fill="url(#paint3_linear_59_390)"/>
<rect width="31.5784" height="31.5784" transform="matrix(0.866025 -0.5 0.866025 0.5 180.087 31.7652)" fill="url(#paint4_linear_59_390)"/>
<rect width="45.6061" height="45.4974" transform="matrix(0.866025 -0.5 0.866025 0.5 168 24.8031)" stroke="url(#paint5_linear_59_390)" stroke-width="5" stroke-linejoin="bevel"/>
<rect width="45.4974" height="45.8247" transform="matrix(0.866025 -0.5 2.20305e-08 1 207.62 47.5518)" stroke="url(#paint6_linear_59_390)" stroke-width="5" stroke-linejoin="bevel"/>
<path d="M168 26.0753C168 25.523 168.388 25.2991 168.866 25.5753L206.318 47.1983C206.796 47.4744 207.184 48.146 207.184 48.6983L207.184 92.1577C207.184 92.71 206.796 92.9338 206.318 92.6577L168.866 71.0347C168.388 70.7586 168 70.087 168 69.5347L168 26.0753Z" stroke="url(#paint7_linear_59_390)" stroke-width="5"/>
<rect width="21.8303" height="21.5" transform="matrix(0.870349 -0.492435 2.24806e-08 1 46.0001 67.5)" fill="url(#paint8_linear_59_390)"/>
<rect width="21.8303" height="21.5" transform="matrix(0.870349 0.492435 -2.24806e-08 1 27 56.75)" fill="url(#paint9_linear_59_390)"/>
<rect width="21.8303" height="21.8303" transform="matrix(0.870349 -0.492435 0.870349 0.492435 27 56.75)" fill="url(#paint10_linear_59_390)"/>
<rect width="21.8303" height="21.5" transform="matrix(0.870349 -0.492435 2.24806e-08 1 73.0001 27.5)" fill="url(#paint11_linear_59_390)"/>
<rect width="21.8303" height="21.5" transform="matrix(0.870349 0.492435 -2.24806e-08 1 54 16.75)" fill="url(#paint12_linear_59_390)"/>
<rect width="21.8303" height="21.8303" transform="matrix(0.870349 -0.492435 0.870349 0.492435 54 16.75)" fill="url(#paint13_linear_59_390)"/>
<rect width="21.8303" height="21.5" transform="matrix(0.870349 -0.492435 2.24806e-08 1 19.0001 27.5)" fill="url(#paint14_linear_59_390)"/>
<rect width="21.8303" height="21.5" transform="matrix(0.870349 0.492435 -2.24806e-08 1 0 16.75)" fill="url(#paint15_linear_59_390)"/>
<rect width="21.8303" height="21.8303" transform="matrix(0.870349 -0.492435 0.870349 0.492435 0 16.75)" fill="url(#paint16_linear_59_390)"/>
<rect opacity="0.5" x="9" y="110" width="72" height="25" rx="3" fill="#3F434B"/>
<rect opacity="0.5" x="171" y="110" width="72" height="25" rx="3" fill="#3F434B"/>
<rect opacity="0.5" x="333" y="110" width="72" height="25" rx="3" fill="#3F434B"/>
<path d="M28.2109 128H25.0689V117.818H28.3501C29.3378 117.818 30.183 118.022 30.8857 118.43C31.5883 118.834 32.1269 119.416 32.5014 120.175C32.8759 120.93 33.0632 121.835 33.0632 122.889C33.0632 123.95 32.8743 124.863 32.4964 125.629C32.1186 126.391 31.5684 126.978 30.8459 127.388C30.1233 127.796 29.245 128 28.2109 128ZM26.3018 126.906H28.1314C28.9732 126.906 29.6709 126.744 30.2244 126.419C30.7779 126.094 31.1906 125.632 31.4624 125.032C31.7341 124.432 31.87 123.718 31.87 122.889C31.87 122.067 31.7358 121.36 31.4673 120.766C31.1989 120.17 30.7978 119.712 30.2642 119.394C29.7306 119.073 29.0661 118.912 28.2706 118.912H26.3018V126.906ZM37.2195 128.179C36.7356 128.179 36.2964 128.088 35.902 127.906C35.5076 127.72 35.1944 127.453 34.9624 127.105C34.7304 126.754 34.6143 126.33 34.6143 125.832C34.6143 125.395 34.7005 125.04 34.8729 124.768C35.0452 124.493 35.2756 124.278 35.5639 124.122C35.8523 123.966 36.1705 123.85 36.5185 123.774C36.8698 123.695 37.2228 123.632 37.5774 123.585C38.0414 123.526 38.4176 123.481 38.706 123.451C38.9976 123.418 39.2098 123.363 39.3423 123.287C39.4782 123.211 39.5462 123.078 39.5462 122.889V122.849C39.5462 122.359 39.4119 121.978 39.1435 121.706C38.8783 121.434 38.4756 121.298 37.9354 121.298C37.3752 121.298 36.9361 121.421 36.6179 121.666C36.2997 121.911 36.076 122.173 35.9467 122.452L34.8331 122.054C35.032 121.59 35.2971 121.229 35.6286 120.97C35.9633 120.708 36.3279 120.526 36.7223 120.423C37.12 120.317 37.5111 120.264 37.8956 120.264C38.1409 120.264 38.4226 120.294 38.7408 120.354C39.0623 120.41 39.3722 120.528 39.6705 120.707C39.9721 120.886 40.2223 121.156 40.4212 121.517C40.62 121.878 40.7195 122.362 40.7195 122.969V128H39.5462V126.966H39.4865C39.407 127.132 39.2744 127.309 39.0888 127.498C38.9032 127.687 38.6563 127.848 38.348 127.98C38.0398 128.113 37.6636 128.179 37.2195 128.179ZM37.3984 127.125C37.8625 127.125 38.2536 127.034 38.5717 126.852C38.8932 126.669 39.1352 126.434 39.2976 126.146C39.4633 125.857 39.5462 125.554 39.5462 125.236V124.162C39.4964 124.222 39.3871 124.276 39.218 124.326C39.0523 124.372 38.8601 124.414 38.6413 124.45C38.4259 124.483 38.2154 124.513 38.0099 124.54C37.8078 124.563 37.6437 124.583 37.5178 124.599C37.2128 124.639 36.9278 124.704 36.6626 124.793C36.4008 124.879 36.1887 125.01 36.0263 125.186C35.8672 125.358 35.7876 125.594 35.7876 125.892C35.7876 126.3 35.9384 126.608 36.2401 126.817C36.545 127.022 36.9311 127.125 37.3984 127.125ZM42.861 130.864V120.364H43.9945V121.577H44.1337C44.2199 121.444 44.3392 121.275 44.4917 121.07C44.6474 120.861 44.8695 120.675 45.1578 120.513C45.4495 120.347 45.8439 120.264 46.3411 120.264C46.9841 120.264 47.5508 120.425 48.0414 120.746C48.5319 121.068 48.9147 121.524 49.1898 122.114C49.4649 122.704 49.6025 123.4 49.6025 124.202C49.6025 125.01 49.4649 125.711 49.1898 126.305C48.9147 126.895 48.5336 127.352 48.0463 127.677C47.5591 127.998 46.9973 128.159 46.361 128.159C45.8704 128.159 45.4777 128.078 45.1827 127.915C44.8877 127.75 44.6607 127.562 44.5016 127.354C44.3425 127.142 44.2199 126.966 44.1337 126.827H44.0343V130.864H42.861ZM44.0144 124.182C44.0144 124.759 44.0989 125.267 44.2679 125.708C44.437 126.146 44.6839 126.489 45.0087 126.737C45.3335 126.982 45.7312 127.105 46.2019 127.105C46.6924 127.105 47.1017 126.976 47.4299 126.717C47.7613 126.455 48.0099 126.104 48.1756 125.663C48.3446 125.219 48.4292 124.725 48.4292 124.182C48.4292 123.645 48.3463 123.161 48.1806 122.73C48.0182 122.296 47.7712 121.953 47.4398 121.701C47.1117 121.446 46.699 121.318 46.2019 121.318C45.7246 121.318 45.3236 121.439 44.9988 121.681C44.6739 121.92 44.4287 122.254 44.263 122.685C44.0972 123.113 44.0144 123.612 44.0144 124.182ZM51.3922 130.864V120.364H52.5257V121.577H52.665C52.7511 121.444 52.8704 121.275 53.0229 121.07C53.1787 120.861 53.4007 120.675 53.6891 120.513C53.9808 120.347 54.3752 120.264 54.8723 120.264C55.5153 120.264 56.0821 120.425 56.5726 120.746C57.0632 121.068 57.446 121.524 57.7211 122.114C57.9962 122.704 58.1337 123.4 58.1337 124.202C58.1337 125.01 57.9962 125.711 57.7211 126.305C57.446 126.895 57.0648 127.352 56.5776 127.677C56.0904 127.998 55.5286 128.159 54.8922 128.159C54.4017 128.159 54.0089 128.078 53.714 127.915C53.419 127.75 53.1919 127.562 53.0328 127.354C52.8738 127.142 52.7511 126.966 52.665 126.827H52.5655V130.864H51.3922ZM52.5456 124.182C52.5456 124.759 52.6301 125.267 52.7992 125.708C52.9682 126.146 53.2151 126.489 53.54 126.737C53.8648 126.982 54.2625 127.105 54.7331 127.105C55.2237 127.105 55.633 126.976 55.9611 126.717C56.2926 126.455 56.5411 126.104 56.7069 125.663C56.8759 125.219 56.9604 124.725 56.9604 124.182C56.9604 123.645 56.8775 123.161 56.7118 122.73C56.5494 122.296 56.3025 121.953 55.9711 121.701C55.6429 121.446 55.2303 121.318 54.7331 121.318C54.2559 121.318 53.8548 121.439 53.53 121.681C53.2052 121.92 52.9599 122.254 52.7942 122.685C52.6285 123.113 52.5456 123.612 52.5456 124.182ZM65.3326 122.074L64.2786 122.372C64.2123 122.196 64.1145 122.026 63.9853 121.86C63.8593 121.691 63.687 121.552 63.4682 121.442C63.2495 121.333 62.9694 121.278 62.628 121.278C62.1607 121.278 61.7712 121.386 61.4597 121.602C61.1515 121.814 60.9973 122.084 60.9973 122.412C60.9973 122.704 61.1034 122.934 61.3155 123.103C61.5276 123.272 61.8591 123.413 62.3098 123.526L63.4434 123.804C64.1261 123.97 64.6349 124.223 64.9696 124.565C65.3044 124.903 65.4718 125.339 65.4718 125.872C65.4718 126.31 65.3458 126.701 65.0939 127.045C64.8453 127.39 64.4973 127.662 64.0499 127.861C63.6025 128.06 63.0821 128.159 62.4888 128.159C61.7099 128.159 61.0653 127.99 60.5549 127.652C60.0444 127.314 59.7213 126.82 59.5854 126.17L60.699 125.892C60.8051 126.303 61.0056 126.611 61.3006 126.817C61.5989 127.022 61.9883 127.125 62.4689 127.125C63.0158 127.125 63.45 127.009 63.7715 126.777C64.0963 126.542 64.2587 126.26 64.2587 125.932C64.2587 125.667 64.1659 125.445 63.9803 125.266C63.7947 125.083 63.5096 124.947 63.1252 124.858L61.8525 124.56C61.1531 124.394 60.6394 124.137 60.3113 123.789C59.9864 123.438 59.824 122.999 59.824 122.472C59.824 122.041 59.945 121.66 60.187 121.328C60.4322 120.997 60.7653 120.737 61.1863 120.548C61.6105 120.359 62.0911 120.264 62.628 120.264C63.3837 120.264 63.977 120.43 64.4078 120.761C64.842 121.093 65.1503 121.53 65.3326 122.074Z" fill="#B6B6B6"/>
<path d="M186.683 128L183.899 117.818H185.152L187.28 126.111H187.379L189.547 117.818H190.939L193.106 126.111H193.206L195.334 117.818H196.586L193.802 128H192.53L190.282 119.886H190.203L187.956 128H186.683ZM200.355 128.159C199.665 128.159 199.061 127.995 198.54 127.667C198.023 127.339 197.619 126.88 197.327 126.29C197.039 125.7 196.895 125.01 196.895 124.222C196.895 123.426 197.039 122.732 197.327 122.138C197.619 121.545 198.023 121.085 198.54 120.756C199.061 120.428 199.665 120.264 200.355 120.264C201.044 120.264 201.647 120.428 202.165 120.756C202.685 121.085 203.089 121.545 203.378 122.138C203.669 122.732 203.815 123.426 203.815 124.222C203.815 125.01 203.669 125.7 203.378 126.29C203.089 126.88 202.685 127.339 202.165 127.667C201.647 127.995 201.044 128.159 200.355 128.159ZM200.355 127.105C200.879 127.105 201.309 126.971 201.647 126.702C201.986 126.434 202.236 126.081 202.398 125.643C202.561 125.206 202.642 124.732 202.642 124.222C202.642 123.711 202.561 123.236 202.398 122.795C202.236 122.354 201.986 121.998 201.647 121.726C201.309 121.454 200.879 121.318 200.355 121.318C199.831 121.318 199.4 121.454 199.062 121.726C198.724 121.998 198.474 122.354 198.312 122.795C198.149 123.236 198.068 123.711 198.068 124.222C198.068 124.732 198.149 125.206 198.312 125.643C198.474 126.081 198.724 126.434 199.062 126.702C199.4 126.971 199.831 127.105 200.355 127.105ZM205.606 128V120.364H206.74V121.517H206.819C206.958 121.139 207.21 120.833 207.575 120.597C207.939 120.362 208.35 120.244 208.808 120.244C208.894 120.244 209.002 120.246 209.131 120.249C209.26 120.253 209.358 120.258 209.424 120.264V121.457C209.384 121.447 209.293 121.433 209.151 121.413C209.012 121.389 208.864 121.378 208.708 121.378C208.337 121.378 208.006 121.456 207.714 121.612C207.426 121.764 207.197 121.976 207.028 122.248C206.862 122.516 206.779 122.823 206.779 123.168V128H205.606ZM211.909 125.216L211.889 123.764H212.128L215.468 120.364H216.92L213.361 123.963H213.261L211.909 125.216ZM210.815 128V117.818H211.988V128H210.815ZM215.667 128L212.684 124.222L213.52 123.406L217.159 128H215.667ZM221.318 128.159C220.582 128.159 219.947 127.997 219.413 127.672C218.883 127.344 218.474 126.886 218.185 126.3C217.9 125.71 217.758 125.024 217.758 124.241C217.758 123.459 217.9 122.77 218.185 122.173C218.474 121.573 218.875 121.106 219.389 120.771C219.906 120.433 220.509 120.264 221.198 120.264C221.596 120.264 221.989 120.33 222.377 120.463C222.764 120.596 223.117 120.811 223.435 121.109C223.754 121.404 224.007 121.795 224.196 122.283C224.385 122.77 224.479 123.37 224.479 124.082V124.58H218.593V123.565H223.286C223.286 123.134 223.2 122.75 223.028 122.412C222.859 122.074 222.617 121.807 222.302 121.612C221.99 121.416 221.622 121.318 221.198 121.318C220.731 121.318 220.327 121.434 219.985 121.666C219.647 121.895 219.387 122.193 219.205 122.561C219.022 122.929 218.931 123.323 218.931 123.744V124.42C218.931 124.997 219.031 125.486 219.229 125.887C219.432 126.285 219.712 126.588 220.07 126.797C220.428 127.002 220.844 127.105 221.318 127.105C221.626 127.105 221.904 127.062 222.153 126.976C222.405 126.886 222.622 126.754 222.804 126.578C222.986 126.399 223.127 126.177 223.227 125.912L224.36 126.23C224.241 126.615 224.04 126.953 223.759 127.244C223.477 127.533 223.129 127.758 222.715 127.92C222.3 128.08 221.835 128.159 221.318 128.159ZM226.264 128V120.364H227.398V121.517H227.477C227.617 121.139 227.868 120.833 228.233 120.597C228.598 120.362 229.009 120.244 229.466 120.244C229.552 120.244 229.66 120.246 229.789 120.249C229.918 120.253 230.016 120.258 230.082 120.264V121.457C230.043 121.447 229.952 121.433 229.809 121.413C229.67 121.389 229.522 121.378 229.367 121.378C228.995 121.378 228.664 121.456 228.372 121.612C228.084 121.764 227.855 121.976 227.686 122.248C227.52 122.516 227.438 122.823 227.438 123.168V128H226.264Z" fill="#B6B6B6"/>
<path d="M361.39 117.818H362.623V124.56C362.623 125.256 362.459 125.877 362.131 126.424C361.806 126.968 361.347 127.397 360.754 127.712C360.161 128.023 359.465 128.179 358.666 128.179C357.867 128.179 357.171 128.023 356.578 127.712C355.985 127.397 355.524 126.968 355.196 126.424C354.871 125.877 354.709 125.256 354.709 124.56V117.818H355.941V124.46C355.941 124.957 356.051 125.4 356.27 125.788C356.488 126.172 356.8 126.475 357.204 126.697C357.612 126.916 358.099 127.026 358.666 127.026C359.233 127.026 359.72 126.916 360.128 126.697C360.535 126.475 360.847 126.172 361.062 125.788C361.281 125.4 361.39 124.957 361.39 124.46V117.818ZM370.335 122.074L369.282 122.372C369.215 122.196 369.117 122.026 368.988 121.86C368.862 121.691 368.69 121.552 368.471 121.442C368.252 121.333 367.972 121.278 367.631 121.278C367.164 121.278 366.774 121.386 366.463 121.602C366.154 121.814 366 122.084 366 122.412C366 122.704 366.106 122.934 366.318 123.103C366.531 123.272 366.862 123.413 367.313 123.526L368.446 123.804C369.129 123.97 369.638 124.223 369.973 124.565C370.307 124.903 370.475 125.339 370.475 125.872C370.475 126.31 370.349 126.701 370.097 127.045C369.848 127.39 369.5 127.662 369.053 127.861C368.605 128.06 368.085 128.159 367.492 128.159C366.713 128.159 366.068 127.99 365.558 127.652C365.047 127.314 364.724 126.82 364.588 126.17L365.702 125.892C365.808 126.303 366.009 126.611 366.304 126.817C366.602 127.022 366.991 127.125 367.472 127.125C368.019 127.125 368.453 127.009 368.774 126.777C369.099 126.542 369.262 126.26 369.262 125.932C369.262 125.667 369.169 125.445 368.983 125.266C368.798 125.083 368.513 124.947 368.128 124.858L366.855 124.56C366.156 124.394 365.642 124.137 365.314 123.789C364.989 123.438 364.827 122.999 364.827 122.472C364.827 122.041 364.948 121.66 365.19 121.328C365.435 120.997 365.768 120.737 366.189 120.548C366.613 120.359 367.094 120.264 367.631 120.264C368.387 120.264 368.98 120.43 369.411 120.761C369.845 121.093 370.153 121.53 370.335 122.074ZM375.443 128.159C374.707 128.159 374.072 127.997 373.538 127.672C373.008 127.344 372.599 126.886 372.31 126.3C372.025 125.71 371.883 125.024 371.883 124.241C371.883 123.459 372.025 122.77 372.31 122.173C372.599 121.573 373 121.106 373.514 120.771C374.031 120.433 374.634 120.264 375.323 120.264C375.721 120.264 376.114 120.33 376.502 120.463C376.889 120.596 377.242 120.811 377.56 121.109C377.879 121.404 378.132 121.795 378.321 122.283C378.51 122.77 378.604 123.37 378.604 124.082V124.58H372.718V123.565H377.411C377.411 123.134 377.325 122.75 377.153 122.412C376.984 122.074 376.742 121.807 376.427 121.612C376.115 121.416 375.747 121.318 375.323 121.318C374.856 121.318 374.452 121.434 374.11 121.666C373.772 121.895 373.512 122.193 373.33 122.561C373.147 122.929 373.056 123.323 373.056 123.744V124.42C373.056 124.997 373.156 125.486 373.354 125.887C373.557 126.285 373.837 126.588 374.195 126.797C374.553 127.002 374.969 127.105 375.443 127.105C375.751 127.105 376.029 127.062 376.278 126.976C376.53 126.886 376.747 126.754 376.929 126.578C377.111 126.399 377.252 126.177 377.352 125.912L378.485 126.23C378.366 126.615 378.165 126.953 377.884 127.244C377.602 127.533 377.254 127.758 376.84 127.92C376.425 128.08 375.96 128.159 375.443 128.159ZM380.389 128V120.364H381.523V121.517H381.602C381.742 121.139 381.993 120.833 382.358 120.597C382.723 120.362 383.134 120.244 383.591 120.244C383.677 120.244 383.785 120.246 383.914 120.249C384.043 120.253 384.141 120.258 384.207 120.264V121.457C384.168 121.447 384.077 121.433 383.934 121.413C383.795 121.389 383.647 121.378 383.492 121.378C383.12 121.378 382.789 121.456 382.497 121.612C382.209 121.764 381.98 121.976 381.811 122.248C381.645 122.516 381.563 122.823 381.563 123.168V128H380.389Z" fill="#B6B6B6"/>
<rect x="341" y="40" width="56" height="29" rx="4" fill="url(#paint17_linear_59_390)"/>
<defs>
<linearGradient id="paint0_linear_59_390" x1="22.7487" y1="7.8073e-07" x2="-23.6087" y2="5.71978" gradientUnits="userSpaceOnUse">
<stop stop-color="#0D6EFD"/>
<stop offset="1" stop-color="#103B7B"/>
</linearGradient>
<linearGradient id="paint1_linear_59_390" x1="22.8115" y1="0" x2="22.8115" y2="45.6231" gradientUnits="userSpaceOnUse">
<stop stop-color="#0D6EFD"/>
<stop offset="1" stop-color="#103B7B"/>
</linearGradient>
<linearGradient id="paint2_linear_59_390" x1="37.5103" y1="16.5643" x2="4.1298" y2="40.3608" gradientUnits="userSpaceOnUse">
<stop stop-color="#0D6EFD"/>
<stop offset="1" stop-color="#103B7B"/>
</linearGradient>
<linearGradient id="paint3_linear_59_390" x1="37.9465" y1="-8.92559" x2="-15.3883" y2="-5.73405" gradientUnits="userSpaceOnUse">
<stop stop-color="#0067FF"/>
<stop offset="1" stop-color="#3F8CFF"/>
</linearGradient>
<linearGradient id="paint4_linear_59_390" x1="25.1232" y1="25.1232" x2="22.9394" y2="-12.257" gradientUnits="userSpaceOnUse">
<stop stop-color="#0D6EFD"/>
<stop offset="1" stop-color="#103B7B"/>
</linearGradient>
<linearGradient id="paint5_linear_59_390" x1="22.8031" y1="0" x2="22.8031" y2="45.4974" gradientUnits="userSpaceOnUse">
<stop stop-color="#0D6EFD"/>
<stop offset="1" stop-color="#103B7B"/>
</linearGradient>
<linearGradient id="paint6_linear_59_390" x1="22.7487" y1="0" x2="22.7487" y2="45.8247" gradientUnits="userSpaceOnUse">
<stop stop-color="#0D6EFD"/>
<stop offset="1" stop-color="#103B7B"/>
</linearGradient>
<linearGradient id="paint7_linear_59_390" x1="187.592" y1="36.3868" x2="167.908" y2="70.4813" gradientUnits="userSpaceOnUse">
<stop stop-color="#103B7B"/>
<stop offset="1" stop-color="#1C5BB9"/>
</linearGradient>
<linearGradient id="paint8_linear_59_390" x1="25.9311" y1="11.2778" x2="3.0932" y2="27.8086" gradientUnits="userSpaceOnUse">
<stop stop-color="#0D6EFD"/>
<stop offset="1" stop-color="#103B7B"/>
</linearGradient>
<linearGradient id="paint9_linear_59_390" x1="26.2326" y1="-6.07696" x2="-10.634" y2="-3.83698" gradientUnits="userSpaceOnUse">
<stop stop-color="#0067FF"/>
<stop offset="1" stop-color="#3F8CFF"/>
</linearGradient>
<linearGradient id="paint10_linear_59_390" x1="17.3678" y1="17.3678" x2="15.8581" y2="-8.47333" gradientUnits="userSpaceOnUse">
<stop stop-color="#0D6EFD"/>
<stop offset="1" stop-color="#103B7B"/>
</linearGradient>
<linearGradient id="paint11_linear_59_390" x1="25.9311" y1="11.2778" x2="3.0932" y2="27.8086" gradientUnits="userSpaceOnUse">
<stop stop-color="#0D6EFD"/>
<stop offset="1" stop-color="#103B7B"/>
</linearGradient>
<linearGradient id="paint12_linear_59_390" x1="26.2326" y1="-6.07696" x2="-10.634" y2="-3.83698" gradientUnits="userSpaceOnUse">
<stop stop-color="#0067FF"/>
<stop offset="1" stop-color="#3F8CFF"/>
</linearGradient>
<linearGradient id="paint13_linear_59_390" x1="17.3678" y1="17.3678" x2="15.8581" y2="-8.47333" gradientUnits="userSpaceOnUse">
<stop stop-color="#0D6EFD"/>
<stop offset="1" stop-color="#103B7B"/>
</linearGradient>
<linearGradient id="paint14_linear_59_390" x1="25.9311" y1="11.2778" x2="3.0932" y2="27.8086" gradientUnits="userSpaceOnUse">
<stop stop-color="#0D6EFD"/>
<stop offset="1" stop-color="#103B7B"/>
</linearGradient>
<linearGradient id="paint15_linear_59_390" x1="26.2326" y1="-6.07696" x2="-10.634" y2="-3.83698" gradientUnits="userSpaceOnUse">
<stop stop-color="#0067FF"/>
<stop offset="1" stop-color="#3F8CFF"/>
</linearGradient>
<linearGradient id="paint16_linear_59_390" x1="17.3678" y1="17.3678" x2="15.8581" y2="-8.47333" gradientUnits="userSpaceOnUse">
<stop stop-color="#0D6EFD"/>
<stop offset="1" stop-color="#103B7B"/>
</linearGradient>
<linearGradient id="paint17_linear_59_390" x1="371.765" y1="46.3205" x2="352.756" y2="56.9917" gradientUnits="userSpaceOnUse">
<stop stop-color="#0D6EFD"/>
<stop offset="1" stop-color="#0E4FAE"/>
</linearGradient>
</defs>
</svg>
