<?xml version="1.0" encoding="utf-8"?>
<svg viewBox="242.482 213.869 60 39" width="60" height="39" xmlns="http://www.w3.org/2000/svg">
  <path d="M 242.482 221.869 C 242.482 217.451 246.064 213.869 250.482 213.869 L 294.482 213.869 C 298.901 213.869 302.482 217.451 302.482 221.869 L 302.482 229.869 C 302.482 234.288 298.901 237.869 294.482 237.869 L 250.482 237.869 C 246.064 237.869 242.482 234.288 242.482 229.869 L 242.482 221.869 Z" fill="#0D6EFD"/>
  <path d="M 282.482 252.869 L 289.411 237.362 L 275.554 237.362 L 282.482 252.869 Z" fill="#0D6EFD" style=""/>
  <path d="M 250.342 221.279 L 253.512 221.279 C 254.227 221.279 254.772 221.334 255.147 221.444 C 255.65 221.592 256.082 221.856 256.441 222.235 C 256.801 222.613 257.074 223.078 257.262 223.629 C 257.449 224.176 257.543 224.852 257.543 225.656 C 257.543 226.363 257.455 226.973 257.279 227.485 C 257.064 228.11 256.758 228.615 256.359 229.002 C 256.059 229.295 255.652 229.524 255.141 229.688 C 254.758 229.809 254.246 229.869 253.605 229.869 L 250.342 229.869 L 250.342 221.279 Z M 252.076 222.733 L 252.076 228.422 L 253.371 228.422 C 253.855 228.422 254.205 228.395 254.42 228.34 C 254.701 228.27 254.934 228.151 255.117 227.983 C 255.305 227.815 255.457 227.539 255.574 227.156 C 255.691 226.77 255.75 226.244 255.75 225.58 C 255.75 224.916 255.691 224.406 255.574 224.051 C 255.457 223.695 255.293 223.418 255.082 223.219 C 254.871 223.02 254.604 222.885 254.279 222.815 C 254.037 222.76 253.563 222.733 252.855 222.733 L 252.076 222.733 Z" fill="white"/>
  <path d="M 258.668 225.627 C 258.668 224.752 258.799 224.018 259.061 223.424 C 259.256 222.987 259.522 222.594 259.857 222.246 C 260.197 221.899 260.568 221.641 260.971 221.473 C 261.506 221.246 262.123 221.133 262.822 221.133 C 264.088 221.133 265.1 221.526 265.857 222.311 C 266.619 223.096 267 224.188 267 225.586 C 267 226.973 266.623 228.059 265.869 228.844 C 265.115 229.625 264.107 230.016 262.846 230.016 C 261.568 230.016 260.553 229.627 259.799 228.85 C 259.045 228.069 258.668 226.994 258.668 225.627 Z M 260.455 225.569 C 260.455 226.541 260.68 227.28 261.129 227.783 C 261.578 228.283 262.148 228.533 262.84 228.533 C 263.531 228.533 264.098 228.285 264.539 227.789 C 264.984 227.289 265.207 226.541 265.207 225.545 C 265.207 224.561 264.99 223.826 264.557 223.342 C 264.127 222.858 263.555 222.615 262.84 222.615 C 262.125 222.615 261.549 222.862 261.111 223.354 C 260.674 223.842 260.455 224.58 260.455 225.569 Z" fill="white"/>
  <path d="M 269.578 229.869 L 267.527 221.279 L 269.303 221.279 L 270.598 227.18 L 272.168 221.279 L 274.23 221.279 L 275.736 227.28 L 277.055 221.279 L 278.801 221.279 L 276.715 229.869 L 274.875 229.869 L 273.164 223.447 L 271.459 229.869 L 269.578 229.869 Z" fill="white"/>
  <path d="M 279.709 229.869 L 279.709 221.279 L 281.397 221.279 L 284.912 227.016 L 284.912 221.279 L 286.523 221.279 L 286.523 229.869 L 284.783 229.869 L 281.32 224.268 L 281.32 229.869 L 279.709 229.869 Z" fill="white"/>
  <path d="M 298.482 225.869 C 298.482 228.078 296.692 229.869 294.482 229.869 C 292.273 229.869 290.482 228.078 290.482 225.869 C 290.482 223.66 292.273 221.869 294.482 221.869 C 296.692 221.869 298.482 223.66 298.482 225.869 Z" fill="#FF0000"/>
</svg>