<svg width="420" height="135" viewBox="0 0 420 135" fill="none" xmlns="http://www.w3.org/2000/svg">
<line x1="107" y1="54.5" x2="116" y2="54.5" stroke="#D9D9D9"/>
<line x1="120" y1="54.5" x2="129" y2="54.5" stroke="#D9D9D9"/>
<line x1="133" y1="54.5" x2="142" y2="54.5" stroke="#D9D9D9"/>
<line x1="146" y1="54.5" x2="155" y2="54.5" stroke="#D9D9D9"/>
<line x1="159" y1="54.5" x2="168" y2="54.5" stroke="#D9D9D9"/>
<line x1="277" y1="54.5" x2="286" y2="54.5" stroke="#D9D9D9"/>
<line x1="290" y1="54.5" x2="299" y2="54.5" stroke="#D9D9D9"/>
<line x1="303" y1="54.5" x2="312" y2="54.5" stroke="#D9D9D9"/>
<line x1="316" y1="54.5" x2="325" y2="54.5" stroke="#D9D9D9"/>
<line x1="329" y1="54.5" x2="338" y2="54.5" stroke="#D9D9D9"/>
<rect width="45.4974" height="45.8247" rx="4" transform="matrix(0.866025 -0.5 2.20305e-08 1 183 24.7487)" stroke="url(#paint0_linear_59_390)" stroke-width="5" stroke-linejoin="round"/>
<rect width="45.6231" height="45.6231" rx="4" transform="matrix(0.866025 -0.5 0.866025 0.5 183 70.5723)" stroke="url(#paint1_linear_59_390)" stroke-width="5" stroke-linejoin="bevel"/>
<rect width="31.5784" height="31.5784" transform="matrix(0.866025 -0.5 2.20305e-08 1 222.435 47.5544)" fill="url(#paint2_linear_59_390)"/>
<rect width="31.5784" height="31.5784" transform="matrix(0.866025 0.5 -2.20305e-08 1 195.087 31.7652)" fill="url(#paint3_linear_59_390)"/>
<rect width="31.5784" height="31.5784" transform="matrix(0.866025 -0.5 0.866025 0.5 195.087 31.7652)" fill="url(#paint4_linear_59_390)"/>
<rect width="45.6061" height="45.4974" transform="matrix(0.866025 -0.5 0.866025 0.5 183 24.8031)" stroke="url(#paint5_linear_59_390)" stroke-width="5" stroke-linejoin="bevel"/>
<rect width="45.4974" height="45.8247" transform="matrix(0.866025 -0.5 2.20305e-08 1 222.62 47.5518)" stroke="url(#paint6_linear_59_390)" stroke-width="5" stroke-linejoin="bevel"/>
<path d="M183 26.0753C183 25.523 183.388 25.2991 183.866 25.5753L221.318 47.1983C221.796 47.4744 222.184 48.146 222.184 48.6983L222.184 92.1577C222.184 92.71 221.796 92.9338 221.318 92.6577L183.866 71.0347C183.388 70.7586 183 70.087 183 69.5347L183 26.0753Z" stroke="url(#paint7_linear_59_390)" stroke-width="5"/>
<rect width="21.8303" height="21.5" transform="matrix(0.870349 -0.492435 2.24806e-08 1 75.0001 67.5)" fill="url(#paint8_linear_59_390)"/>
<rect width="21.8303" height="21.5" transform="matrix(0.870349 0.492435 -2.24806e-08 1 56 56.75)" fill="url(#paint9_linear_59_390)"/>
<rect width="21.8303" height="21.8303" transform="matrix(0.870349 -0.492435 0.870349 0.492435 56 56.75)" fill="url(#paint10_linear_59_390)"/>
<rect width="21.8303" height="21.5" transform="matrix(0.870349 -0.492435 2.24806e-08 1 19.0001 67.5)" fill="url(#paint11_linear_59_390)"/>
<rect width="21.8303" height="21.5" transform="matrix(0.870349 0.492435 -2.24806e-08 1 0 56.75)" fill="url(#paint12_linear_59_390)"/>
<rect width="21.8303" height="21.8303" transform="matrix(0.870349 -0.492435 0.870349 0.492435 0 56.75)" fill="url(#paint13_linear_59_390)"/>
<rect width="21.8303" height="21.5" transform="matrix(0.870349 -0.492435 2.24806e-08 1 102 27.5)" fill="url(#paint14_linear_59_390)"/>
<rect width="21.8303" height="21.5" transform="matrix(0.870349 0.492435 -2.24806e-08 1 83 16.75)" fill="url(#paint15_linear_59_390)"/>
<rect width="21.8303" height="21.8303" transform="matrix(0.870349 -0.492435 0.870349 0.492435 83 16.75)" fill="url(#paint16_linear_59_390)"/>
<rect width="21.8303" height="21.5" transform="matrix(0.870349 -0.492435 2.24806e-08 1 48.0001 27.5)" fill="url(#paint17_linear_59_390)"/>
<rect width="21.8303" height="21.5" transform="matrix(0.870349 0.492435 -2.24806e-08 1 29 16.75)" fill="url(#paint18_linear_59_390)"/>
<rect width="21.8303" height="21.8303" transform="matrix(0.870349 -0.492435 0.870349 0.492435 29 16.75)" fill="url(#paint19_linear_59_390)"/>
<rect opacity="0.5" x="24" y="110" width="72" height="25" rx="3" fill="#3F434B"/>
<rect opacity="0.5" x="186" y="110" width="72" height="25" rx="3" fill="#3F434B"/>
<rect opacity="0.5" x="348" y="110" width="72" height="25" rx="3" fill="#3F434B"/>
<path d="M43.2109 128H40.0689V117.818H43.3501C44.3378 117.818 45.183 118.022 45.8857 118.43C46.5883 118.834 47.1269 119.416 47.5014 120.175C47.8759 120.93 48.0632 121.835 48.0632 122.889C48.0632 123.95 47.8743 124.863 47.4964 125.629C47.1186 126.391 46.5684 126.978 45.8459 127.388C45.1233 127.796 44.245 128 43.2109 128ZM41.3018 126.906H43.1314C43.9732 126.906 44.6709 126.744 45.2244 126.419C45.7779 126.094 46.1906 125.632 46.4624 125.032C46.7341 124.432 46.87 123.718 46.87 122.889C46.87 122.067 46.7358 121.36 46.4673 120.766C46.1989 120.17 45.7978 119.712 45.2642 119.394C44.7306 119.073 44.0661 118.912 43.2706 118.912H41.3018V126.906ZM52.2195 128.179C51.7356 128.179 51.2964 128.088 50.902 127.906C50.5076 127.72 50.1944 127.453 49.9624 127.105C49.7304 126.754 49.6143 126.33 49.6143 125.832C49.6143 125.395 49.7005 125.04 49.8729 124.768C50.0452 124.493 50.2756 124.278 50.5639 124.122C50.8523 123.966 51.1705 123.85 51.5185 123.774C51.8698 123.695 52.2228 123.632 52.5774 123.585C53.0414 123.526 53.4176 123.481 53.706 123.451C53.9976 123.418 54.2098 123.363 54.3423 123.287C54.4782 123.211 54.5462 123.078 54.5462 122.889V122.849C54.5462 122.359 54.4119 121.978 54.1435 121.706C53.8783 121.434 53.4756 121.298 52.9354 121.298C52.3752 121.298 51.9361 121.421 51.6179 121.666C51.2997 121.911 51.076 122.173 50.9467 122.452L49.8331 122.054C50.032 121.59 50.2971 121.229 50.6286 120.97C50.9633 120.708 51.3279 120.526 51.7223 120.423C52.12 120.317 52.5111 120.264 52.8956 120.264C53.1409 120.264 53.4226 120.294 53.7408 120.354C54.0623 120.41 54.3722 120.528 54.6705 120.707C54.9721 120.886 55.2223 121.156 55.4212 121.517C55.62 121.878 55.7195 122.362 55.7195 122.969V128H54.5462V126.966H54.4865C54.407 127.132 54.2744 127.309 54.0888 127.498C53.9032 127.687 53.6563 127.848 53.348 127.98C53.0398 128.113 52.6636 128.179 52.2195 128.179ZM52.3984 127.125C52.8625 127.125 53.2536 127.034 53.5717 126.852C53.8932 126.669 54.1352 126.434 54.2976 126.146C54.4633 125.857 54.5462 125.554 54.5462 125.236V124.162C54.4964 124.222 54.3871 124.276 54.218 124.326C54.0523 124.372 53.8601 124.414 53.6413 124.45C53.4259 124.483 53.2154 124.513 53.0099 124.54C52.8078 124.563 52.6437 124.583 52.5178 124.599C52.2128 124.639 51.9278 124.704 51.6626 124.793C51.4008 124.879 51.1887 125.01 51.0263 125.186C50.8672 125.358 50.7876 125.594 50.7876 125.892C50.7876 126.3 50.9384 126.608 51.2401 126.817C51.545 127.022 51.9311 127.125 52.3984 127.125ZM57.861 130.864V120.364H58.9945V121.577H59.1337C59.2199 121.444 59.3392 121.275 59.4917 121.07C59.6474 120.861 59.8695 120.675 60.1578 120.513C60.4495 120.347 60.8439 120.264 61.3411 120.264C61.9841 120.264 62.5508 120.425 63.0414 120.746C63.5319 121.068 63.9147 121.524 64.1898 122.114C64.4649 122.704 64.6025 123.4 64.6025 124.202C64.6025 125.01 64.4649 125.711 64.1898 126.305C63.9147 126.895 63.5336 127.352 63.0463 127.677C62.5591 127.998 61.9973 128.159 61.361 128.159C60.8704 128.159 60.4777 128.078 60.1827 127.915C59.8877 127.75 59.6607 127.562 59.5016 127.354C59.3425 127.142 59.2199 126.966 59.1337 126.827H59.0343V130.864H57.861ZM59.0144 124.182C59.0144 124.759 59.0989 125.267 59.2679 125.708C59.437 126.146 59.6839 126.489 60.0087 126.737C60.3335 126.982 60.7312 127.105 61.2019 127.105C61.6924 127.105 62.1017 126.976 62.4299 126.717C62.7613 126.455 63.0099 126.104 63.1756 125.663C63.3446 125.219 63.4292 124.725 63.4292 124.182C63.4292 123.645 63.3463 123.161 63.1806 122.73C63.0182 122.296 62.7712 121.953 62.4398 121.701C62.1117 121.446 61.699 121.318 61.2019 121.318C60.7246 121.318 60.3236 121.439 59.9988 121.681C59.6739 121.92 59.4287 122.254 59.263 122.685C59.0972 123.113 59.0144 123.612 59.0144 124.182ZM66.3922 130.864V120.364H67.5257V121.577H67.665C67.7511 121.444 67.8704 121.275 68.0229 121.07C68.1787 120.861 68.4007 120.675 68.6891 120.513C68.9808 120.347 69.3752 120.264 69.8723 120.264C70.5153 120.264 71.0821 120.425 71.5726 120.746C72.0632 121.068 72.446 121.524 72.7211 122.114C72.9962 122.704 73.1337 123.4 73.1337 124.202C73.1337 125.01 72.9962 125.711 72.7211 126.305C72.446 126.895 72.0648 127.352 71.5776 127.677C71.0904 127.998 70.5286 128.159 69.8922 128.159C69.4017 128.159 69.0089 128.078 68.714 127.915C68.419 127.75 68.1919 127.562 68.0328 127.354C67.8738 127.142 67.7511 126.966 67.665 126.827H67.5655V130.864H66.3922ZM67.5456 124.182C67.5456 124.759 67.6301 125.267 67.7992 125.708C67.9682 126.146 68.2151 126.489 68.54 126.737C68.8648 126.982 69.2625 127.105 69.7331 127.105C70.2237 127.105 70.633 126.976 70.9611 126.717C71.2926 126.455 71.5411 126.104 71.7069 125.663C71.8759 125.219 71.9604 124.725 71.9604 124.182C71.9604 123.645 71.8775 123.161 71.7118 122.73C71.5494 122.296 71.3025 121.953 70.9711 121.701C70.6429 121.446 70.2303 121.318 69.7331 121.318C69.2559 121.318 68.8548 121.439 68.53 121.681C68.2052 121.92 67.9599 122.254 67.7942 122.685C67.6285 123.113 67.5456 123.612 67.5456 124.182ZM80.3326 122.074L79.2786 122.372C79.2123 122.196 79.1145 122.026 78.9853 121.86C78.8593 121.691 78.687 121.552 78.4682 121.442C78.2495 121.333 77.9694 121.278 77.628 121.278C77.1607 121.278 76.7712 121.386 76.4597 121.602C76.1515 121.814 75.9973 122.084 75.9973 122.412C75.9973 122.704 76.1034 122.934 76.3155 123.103C76.5276 123.272 76.8591 123.413 77.3098 123.526L78.4434 123.804C79.1261 123.97 79.6349 124.223 79.9696 124.565C80.3044 124.903 80.4718 125.339 80.4718 125.872C80.4718 126.31 80.3458 126.701 80.0939 127.045C79.8453 127.39 79.4973 127.662 79.0499 127.861C78.6025 128.06 78.0821 128.159 77.4888 128.159C76.7099 128.159 76.0653 127.99 75.5549 127.652C75.0444 127.314 74.7213 126.82 74.5854 126.17L75.699 125.892C75.8051 126.303 76.0056 126.611 76.3006 126.817C76.5989 127.022 76.9883 127.125 77.4689 127.125C78.0158 127.125 78.45 127.009 78.7715 126.777C79.0963 126.542 79.2587 126.26 79.2587 125.932C79.2587 125.667 79.1659 125.445 78.9803 125.266C78.7947 125.083 78.5096 124.947 78.1252 124.858L76.8525 124.56C76.1531 124.394 75.6394 124.137 75.3113 123.789C74.9864 123.438 74.824 122.999 74.824 122.472C74.824 122.041 74.945 121.66 75.187 121.328C75.4322 120.997 75.7653 120.737 76.1863 120.548C76.6105 120.359 77.0911 120.264 77.628 120.264C78.3837 120.264 78.977 120.43 79.4078 120.761C79.842 121.093 80.1503 121.53 80.3326 122.074Z" fill="#B6B6B6"/>
<path d="M201.683 128L198.899 117.818H200.152L202.28 126.111H202.379L204.547 117.818H205.939L208.106 126.111H208.206L210.334 117.818H211.586L208.802 128H207.53L205.282 119.886H205.203L202.956 128H201.683ZM215.355 128.159C214.665 128.159 214.061 127.995 213.54 127.667C213.023 127.339 212.619 126.88 212.327 126.29C212.039 125.7 211.895 125.01 211.895 124.222C211.895 123.426 212.039 122.732 212.327 122.138C212.619 121.545 213.023 121.085 213.54 120.756C214.061 120.428 214.665 120.264 215.355 120.264C216.044 120.264 216.647 120.428 217.165 120.756C217.685 121.085 218.089 121.545 218.378 122.138C218.669 122.732 218.815 123.426 218.815 124.222C218.815 125.01 218.669 125.7 218.378 126.29C218.089 126.88 217.685 127.339 217.165 127.667C216.647 127.995 216.044 128.159 215.355 128.159ZM215.355 127.105C215.879 127.105 216.309 126.971 216.647 126.702C216.986 126.434 217.236 126.081 217.398 125.643C217.561 125.206 217.642 124.732 217.642 124.222C217.642 123.711 217.561 123.236 217.398 122.795C217.236 122.354 216.986 121.998 216.647 121.726C216.309 121.454 215.879 121.318 215.355 121.318C214.831 121.318 214.4 121.454 214.062 121.726C213.724 121.998 213.474 122.354 213.312 122.795C213.149 123.236 213.068 123.711 213.068 124.222C213.068 124.732 213.149 125.206 213.312 125.643C213.474 126.081 213.724 126.434 214.062 126.702C214.4 126.971 214.831 127.105 215.355 127.105ZM220.606 128V120.364H221.74V121.517H221.819C221.958 121.139 222.21 120.833 222.575 120.597C222.939 120.362 223.35 120.244 223.808 120.244C223.894 120.244 224.002 120.246 224.131 120.249C224.26 120.253 224.358 120.258 224.424 120.264V121.457C224.384 121.447 224.293 121.433 224.151 121.413C224.012 121.389 223.864 121.378 223.708 121.378C223.337 121.378 223.006 121.456 222.714 121.612C222.426 121.764 222.197 121.976 222.028 122.248C221.862 122.516 221.779 122.823 221.779 123.168V128H220.606ZM226.909 125.216L226.889 123.764H227.128L230.468 120.364H231.92L228.361 123.963H228.261L226.909 125.216ZM225.815 128V117.818H226.988V128H225.815ZM230.667 128L227.684 124.222L228.52 123.406L232.159 128H230.667ZM236.318 128.159C235.582 128.159 234.947 127.997 234.413 127.672C233.883 127.344 233.474 126.886 233.185 126.3C232.9 125.71 232.758 125.024 232.758 124.241C232.758 123.459 232.9 122.77 233.185 122.173C233.474 121.573 233.875 121.106 234.389 120.771C234.906 120.433 235.509 120.264 236.198 120.264C236.596 120.264 236.989 120.33 237.377 120.463C237.764 120.596 238.117 120.811 238.435 121.109C238.754 121.404 239.007 121.795 239.196 122.283C239.385 122.77 239.479 123.37 239.479 124.082V124.58H233.593V123.565H238.286C238.286 123.134 238.2 122.75 238.028 122.412C237.859 122.074 237.617 121.807 237.302 121.612C236.99 121.416 236.622 121.318 236.198 121.318C235.731 121.318 235.327 121.434 234.985 121.666C234.647 121.895 234.387 122.193 234.205 122.561C234.022 122.929 233.931 123.323 233.931 123.744V124.42C233.931 124.997 234.031 125.486 234.229 125.887C234.432 126.285 234.712 126.588 235.07 126.797C235.428 127.002 235.844 127.105 236.318 127.105C236.626 127.105 236.904 127.062 237.153 126.976C237.405 126.886 237.622 126.754 237.804 126.578C237.986 126.399 238.127 126.177 238.227 125.912L239.36 126.23C239.241 126.615 239.04 126.953 238.759 127.244C238.477 127.533 238.129 127.758 237.715 127.92C237.3 128.08 236.835 128.159 236.318 128.159ZM241.264 128V120.364H242.398V121.517H242.477C242.617 121.139 242.868 120.833 243.233 120.597C243.598 120.362 244.009 120.244 244.466 120.244C244.552 120.244 244.66 120.246 244.789 120.249C244.918 120.253 245.016 120.258 245.082 120.264V121.457C245.043 121.447 244.952 121.433 244.809 121.413C244.67 121.389 244.522 121.378 244.367 121.378C243.995 121.378 243.664 121.456 243.372 121.612C243.084 121.764 242.855 121.976 242.686 122.248C242.52 122.516 242.438 122.823 242.438 123.168V128H241.264Z" fill="#B6B6B6"/>
<path d="M376.39 117.818H377.623V124.56C377.623 125.256 377.459 125.877 377.131 126.424C376.806 126.968 376.347 127.397 375.754 127.712C375.161 128.023 374.465 128.179 373.666 128.179C372.867 128.179 372.171 128.023 371.578 127.712C370.985 127.397 370.524 126.968 370.196 126.424C369.871 125.877 369.709 125.256 369.709 124.56V117.818H370.941V124.46C370.941 124.957 371.051 125.4 371.27 125.788C371.488 126.172 371.8 126.475 372.204 126.697C372.612 126.916 373.099 127.026 373.666 127.026C374.233 127.026 374.72 126.916 375.128 126.697C375.535 126.475 375.847 126.172 376.062 125.788C376.281 125.4 376.39 124.957 376.39 124.46V117.818ZM385.335 122.074L384.282 122.372C384.215 122.196 384.117 122.026 383.988 121.86C383.862 121.691 383.69 121.552 383.471 121.442C383.252 121.333 382.972 121.278 382.631 121.278C382.164 121.278 381.774 121.386 381.463 121.602C381.154 121.814 381 122.084 381 122.412C381 122.704 381.106 122.934 381.318 123.103C381.531 123.272 381.862 123.413 382.313 123.526L383.446 123.804C384.129 123.97 384.638 124.223 384.973 124.565C385.307 124.903 385.475 125.339 385.475 125.872C385.475 126.31 385.349 126.701 385.097 127.045C384.848 127.39 384.5 127.662 384.053 127.861C383.605 128.06 383.085 128.159 382.492 128.159C381.713 128.159 381.068 127.99 380.558 127.652C380.047 127.314 379.724 126.82 379.588 126.17L380.702 125.892C380.808 126.303 381.009 126.611 381.304 126.817C381.602 127.022 381.991 127.125 382.472 127.125C383.019 127.125 383.453 127.009 383.774 126.777C384.099 126.542 384.262 126.26 384.262 125.932C384.262 125.667 384.169 125.445 383.983 125.266C383.798 125.083 383.513 124.947 383.128 124.858L381.855 124.56C381.156 124.394 380.642 124.137 380.314 123.789C379.989 123.438 379.827 122.999 379.827 122.472C379.827 122.041 379.948 121.66 380.19 121.328C380.435 120.997 380.768 120.737 381.189 120.548C381.613 120.359 382.094 120.264 382.631 120.264C383.387 120.264 383.98 120.43 384.411 120.761C384.845 121.093 385.153 121.53 385.335 122.074ZM390.443 128.159C389.707 128.159 389.072 127.997 388.538 127.672C388.008 127.344 387.599 126.886 387.31 126.3C387.025 125.71 386.883 125.024 386.883 124.241C386.883 123.459 387.025 122.77 387.31 122.173C387.599 121.573 388 121.106 388.514 120.771C389.031 120.433 389.634 120.264 390.323 120.264C390.721 120.264 391.114 120.33 391.502 120.463C391.889 120.596 392.242 120.811 392.56 121.109C392.879 121.404 393.132 121.795 393.321 122.283C393.51 122.77 393.604 123.37 393.604 124.082V124.58H387.718V123.565H392.411C392.411 123.134 392.325 122.75 392.153 122.412C391.984 122.074 391.742 121.807 391.427 121.612C391.115 121.416 390.747 121.318 390.323 121.318C389.856 121.318 389.452 121.434 389.11 121.666C388.772 121.895 388.512 122.193 388.33 122.561C388.147 122.929 388.056 123.323 388.056 123.744V124.42C388.056 124.997 388.156 125.486 388.354 125.887C388.557 126.285 388.837 126.588 389.195 126.797C389.553 127.002 389.969 127.105 390.443 127.105C390.751 127.105 391.029 127.062 391.278 126.976C391.53 126.886 391.747 126.754 391.929 126.578C392.111 126.399 392.252 126.177 392.352 125.912L393.485 126.23C393.366 126.615 393.165 126.953 392.884 127.244C392.602 127.533 392.254 127.758 391.84 127.92C391.425 128.08 390.96 128.159 390.443 128.159ZM395.389 128V120.364H396.523V121.517H396.602C396.742 121.139 396.993 120.833 397.358 120.597C397.723 120.362 398.134 120.244 398.591 120.244C398.677 120.244 398.785 120.246 398.914 120.249C399.043 120.253 399.141 120.258 399.207 120.264V121.457C399.168 121.447 399.077 121.433 398.934 121.413C398.795 121.389 398.647 121.378 398.492 121.378C398.12 121.378 397.789 121.456 397.497 121.612C397.209 121.764 396.98 121.976 396.811 122.248C396.645 122.516 396.563 122.823 396.563 123.168V128H395.389Z" fill="#B6B6B6"/>
<rect x="356" y="40" width="56" height="29" rx="4" fill="url(#paint20_linear_59_390)"/>
<defs>
<linearGradient id="paint0_linear_59_390" x1="22.7487" y1="7.8073e-07" x2="-23.6087" y2="5.71978" gradientUnits="userSpaceOnUse">
<stop stop-color="#0D6EFD"/>
<stop offset="1" stop-color="#103B7B"/>
</linearGradient>
<linearGradient id="paint1_linear_59_390" x1="22.8115" y1="0" x2="22.8115" y2="45.6231" gradientUnits="userSpaceOnUse">
<stop stop-color="#0D6EFD"/>
<stop offset="1" stop-color="#103B7B"/>
</linearGradient>
<linearGradient id="paint2_linear_59_390" x1="37.5103" y1="16.5643" x2="4.1298" y2="40.3608" gradientUnits="userSpaceOnUse">
<stop stop-color="#0D6EFD"/>
<stop offset="1" stop-color="#103B7B"/>
</linearGradient>
<linearGradient id="paint3_linear_59_390" x1="37.9465" y1="-8.92559" x2="-15.3883" y2="-5.73405" gradientUnits="userSpaceOnUse">
<stop stop-color="#0067FF"/>
<stop offset="1" stop-color="#3F8CFF"/>
</linearGradient>
<linearGradient id="paint4_linear_59_390" x1="25.1232" y1="25.1232" x2="22.9394" y2="-12.257" gradientUnits="userSpaceOnUse">
<stop stop-color="#0D6EFD"/>
<stop offset="1" stop-color="#103B7B"/>
</linearGradient>
<linearGradient id="paint5_linear_59_390" x1="22.8031" y1="0" x2="22.8031" y2="45.4974" gradientUnits="userSpaceOnUse">
<stop stop-color="#0D6EFD"/>
<stop offset="1" stop-color="#103B7B"/>
</linearGradient>
<linearGradient id="paint6_linear_59_390" x1="22.7487" y1="0" x2="22.7487" y2="45.8247" gradientUnits="userSpaceOnUse">
<stop stop-color="#0D6EFD"/>
<stop offset="1" stop-color="#103B7B"/>
</linearGradient>
<linearGradient id="paint7_linear_59_390" x1="202.592" y1="36.3868" x2="182.908" y2="70.4813" gradientUnits="userSpaceOnUse">
<stop stop-color="#103B7B"/>
<stop offset="1" stop-color="#1C5BB9"/>
</linearGradient>
<linearGradient id="paint8_linear_59_390" x1="25.9311" y1="11.2778" x2="3.0932" y2="27.8086" gradientUnits="userSpaceOnUse">
<stop stop-color="#0D6EFD"/>
<stop offset="1" stop-color="#103B7B"/>
</linearGradient>
<linearGradient id="paint9_linear_59_390" x1="26.2326" y1="-6.07696" x2="-10.634" y2="-3.83698" gradientUnits="userSpaceOnUse">
<stop stop-color="#0067FF"/>
<stop offset="1" stop-color="#3F8CFF"/>
</linearGradient>
<linearGradient id="paint10_linear_59_390" x1="17.3678" y1="17.3678" x2="15.8581" y2="-8.47333" gradientUnits="userSpaceOnUse">
<stop stop-color="#0D6EFD"/>
<stop offset="1" stop-color="#103B7B"/>
</linearGradient>
<linearGradient id="paint11_linear_59_390" x1="25.9311" y1="11.2778" x2="3.0932" y2="27.8086" gradientUnits="userSpaceOnUse">
<stop stop-color="#0D6EFD"/>
<stop offset="1" stop-color="#103B7B"/>
</linearGradient>
<linearGradient id="paint12_linear_59_390" x1="26.2326" y1="-6.07696" x2="-10.634" y2="-3.83698" gradientUnits="userSpaceOnUse">
<stop stop-color="#0067FF"/>
<stop offset="1" stop-color="#3F8CFF"/>
</linearGradient>
<linearGradient id="paint13_linear_59_390" x1="17.3678" y1="17.3678" x2="15.8581" y2="-8.47333" gradientUnits="userSpaceOnUse">
<stop stop-color="#0D6EFD"/>
<stop offset="1" stop-color="#103B7B"/>
</linearGradient>
<linearGradient id="paint14_linear_59_390" x1="25.9311" y1="11.2778" x2="3.0932" y2="27.8086" gradientUnits="userSpaceOnUse">
<stop stop-color="#0D6EFD"/>
<stop offset="1" stop-color="#103B7B"/>
</linearGradient>
<linearGradient id="paint15_linear_59_390" x1="26.2326" y1="-6.07696" x2="-10.634" y2="-3.83698" gradientUnits="userSpaceOnUse">
<stop stop-color="#0067FF"/>
<stop offset="1" stop-color="#3F8CFF"/>
</linearGradient>
<linearGradient id="paint16_linear_59_390" x1="17.3678" y1="17.3678" x2="15.8581" y2="-8.47333" gradientUnits="userSpaceOnUse">
<stop stop-color="#0D6EFD"/>
<stop offset="1" stop-color="#103B7B"/>
</linearGradient>
<linearGradient id="paint17_linear_59_390" x1="25.9311" y1="11.2778" x2="3.0932" y2="27.8086" gradientUnits="userSpaceOnUse">
<stop stop-color="#0D6EFD"/>
<stop offset="1" stop-color="#103B7B"/>
</linearGradient>
<linearGradient id="paint18_linear_59_390" x1="26.2326" y1="-6.07696" x2="-10.634" y2="-3.83698" gradientUnits="userSpaceOnUse">
<stop stop-color="#0067FF"/>
<stop offset="1" stop-color="#3F8CFF"/>
</linearGradient>
<linearGradient id="paint19_linear_59_390" x1="17.3678" y1="17.3678" x2="15.8581" y2="-8.47333" gradientUnits="userSpaceOnUse">
<stop stop-color="#0D6EFD"/>
<stop offset="1" stop-color="#103B7B"/>
</linearGradient>
<linearGradient id="paint20_linear_59_390" x1="386.765" y1="46.3205" x2="367.756" y2="56.9917" gradientUnits="userSpaceOnUse">
<stop stop-color="#0D6EFD"/>
<stop offset="1" stop-color="#0E4FAE"/>
</linearGradient>
</defs>
</svg>
