<svg width="385" height="132" viewBox="0 0 385 132" fill="none" xmlns="http://www.w3.org/2000/svg">
<rect width="45.4974" height="45.8247" rx="4" transform="matrix(0.866025 -0.5 2.20305e-08 1 153 24.7487)" stroke="url(#paint0_linear_59_391)" stroke-width="5" stroke-linejoin="round"/>
<rect width="45.6231" height="45.6231" rx="4" transform="matrix(0.866025 -0.5 0.866025 0.5 153 70.5723)" stroke="url(#paint1_linear_59_391)" stroke-width="5" stroke-linejoin="bevel"/>
<rect width="31.5784" height="31.5784" transform="matrix(0.866025 -0.5 2.20305e-08 1 192.435 47.5544)" fill="url(#paint2_linear_59_391)"/>
<rect width="31.5784" height="31.5784" transform="matrix(0.866025 0.5 -2.20305e-08 1 165.087 31.7652)" fill="url(#paint3_linear_59_391)"/>
<rect width="31.5784" height="31.5784" transform="matrix(0.866025 -0.5 0.866025 0.5 165.087 31.7652)" fill="url(#paint4_linear_59_391)"/>
<rect width="45.6061" height="45.4974" transform="matrix(0.866025 -0.5 0.866025 0.5 153 24.8031)" stroke="url(#paint5_linear_59_391)" stroke-width="5" stroke-linejoin="bevel"/>
<rect width="45.4974" height="45.8247" transform="matrix(0.866025 -0.5 2.20305e-08 1 192.62 47.5518)" stroke="url(#paint6_linear_59_391)" stroke-width="5" stroke-linejoin="bevel"/>
<path d="M153 26.0753C153 25.523 153.388 25.2991 153.866 25.5753L191.318 47.1983C191.796 47.4744 192.184 48.146 192.184 48.6983L192.184 92.1577C192.184 92.71 191.796 92.9338 191.318 92.6577L153.866 71.0347C153.388 70.7586 153 70.087 153 69.5347L153 26.0753Z" stroke="url(#paint7_linear_59_391)" stroke-width="5"/>
<rect width="31.5784" height="31.5784" transform="matrix(0.866025 -0.5 2.20305e-08 1 36.3478 47.5784)" fill="url(#paint8_linear_59_391)"/>
<rect width="31.5784" height="31.5784" transform="matrix(0.866025 0.5 -2.20305e-08 1 9 31.7892)" fill="url(#paint9_linear_59_391)"/>
<rect width="31.5784" height="31.5784" transform="matrix(0.866025 -0.5 0.866025 0.5 9 31.7892)" fill="url(#paint10_linear_59_391)"/>
<line x1="247" y1="47.5" x2="256" y2="47.5" stroke="#D9D9D9"/>
<line x1="260" y1="47.5" x2="269" y2="47.5" stroke="#D9D9D9"/>
<line x1="273" y1="47.5" x2="282" y2="47.5" stroke="#D9D9D9"/>
<line x1="286" y1="47.5" x2="295" y2="47.5" stroke="#D9D9D9"/>
<line x1="299" y1="47.5" x2="308" y2="47.5" stroke="#D9D9D9"/>
<line x1="77" y1="47.5" x2="86" y2="47.5" stroke="#D9D9D9"/>
<line x1="90" y1="47.5" x2="99" y2="47.5" stroke="#D9D9D9"/>
<line x1="103" y1="47.5" x2="112" y2="47.5" stroke="#D9D9D9"/>
<line x1="116" y1="47.5" x2="125" y2="47.5" stroke="#D9D9D9"/>
<line x1="129" y1="47.5" x2="138" y2="47.5" stroke="#D9D9D9"/>
<rect x="321" y="34" width="56" height="29" rx="4" fill="url(#paint11_linear_59_391)"/>
<rect opacity="0.5" y="107" width="72" height="25" rx="3" fill="#3F434B"/>
<rect opacity="0.5" x="157" y="107" width="72" height="25" rx="3" fill="#3F434B"/>
<rect opacity="0.5" x="313" y="107" width="72" height="25" rx="3" fill="#3F434B"/>
<path d="M22.375 124H19.233V113.818H22.5142C23.5019 113.818 24.3471 114.022 25.0497 114.43C25.7524 114.834 26.291 115.416 26.6655 116.175C27.04 116.93 27.2273 117.835 27.2273 118.889C27.2273 119.95 27.0384 120.863 26.6605 121.629C26.2827 122.391 25.7325 122.978 25.0099 123.388C24.2874 123.796 23.4091 124 22.375 124ZM20.4659 122.906H22.2955C23.1373 122.906 23.835 122.744 24.3885 122.419C24.942 122.094 25.3546 121.632 25.6264 121.032C25.8982 120.432 26.0341 119.718 26.0341 118.889C26.0341 118.067 25.8999 117.36 25.6314 116.766C25.3629 116.17 24.9619 115.712 24.4283 115.394C23.8946 115.073 23.2301 114.912 22.4347 114.912H20.4659V122.906ZM31.3835 124.179C30.8996 124.179 30.4605 124.088 30.0661 123.906C29.6716 123.72 29.3584 123.453 29.1264 123.105C28.8944 122.754 28.7784 122.33 28.7784 121.832C28.7784 121.395 28.8646 121.04 29.0369 120.768C29.2093 120.493 29.4396 120.278 29.728 120.122C30.0163 119.966 30.3345 119.85 30.6825 119.774C31.0339 119.695 31.3868 119.632 31.7415 119.585C32.2055 119.526 32.5817 119.481 32.87 119.451C33.1617 119.418 33.3738 119.363 33.5064 119.287C33.6423 119.211 33.7102 119.078 33.7102 118.889V118.849C33.7102 118.359 33.576 117.978 33.3075 117.706C33.0424 117.434 32.6397 117.298 32.0994 117.298C31.5393 117.298 31.1001 117.421 30.782 117.666C30.4638 117.911 30.2401 118.173 30.1108 118.452L28.9972 118.054C29.196 117.59 29.4612 117.229 29.7926 116.97C30.1274 116.708 30.492 116.526 30.8864 116.423C31.2841 116.317 31.6752 116.264 32.0597 116.264C32.3049 116.264 32.5866 116.294 32.9048 116.354C33.2263 116.41 33.5362 116.528 33.8345 116.707C34.1361 116.886 34.3864 117.156 34.5852 117.517C34.7841 117.878 34.8835 118.362 34.8835 118.969V124H33.7102V122.966H33.6506C33.571 123.132 33.4384 123.309 33.2528 123.498C33.0672 123.687 32.8203 123.848 32.5121 123.98C32.2038 124.113 31.8277 124.179 31.3835 124.179ZM31.5625 123.125C32.0265 123.125 32.4176 123.034 32.7358 122.852C33.0573 122.669 33.2992 122.434 33.4616 122.146C33.6274 121.857 33.7102 121.554 33.7102 121.236V120.162C33.6605 120.222 33.5511 120.276 33.3821 120.326C33.2164 120.372 33.0241 120.414 32.8054 120.45C32.59 120.483 32.3795 120.513 32.174 120.54C31.9718 120.563 31.8078 120.583 31.6818 120.599C31.3769 120.639 31.0919 120.704 30.8267 120.793C30.5649 120.879 30.3527 121.01 30.1903 121.186C30.0313 121.358 29.9517 121.594 29.9517 121.892C29.9517 122.3 30.1025 122.608 30.4041 122.817C30.709 123.022 31.0952 123.125 31.5625 123.125ZM37.025 126.864V116.364H38.1586V117.577H38.2978C38.3839 117.444 38.5033 117.275 38.6557 117.07C38.8115 116.861 39.0336 116.675 39.3219 116.513C39.6136 116.347 40.008 116.264 40.5051 116.264C41.1481 116.264 41.7149 116.425 42.2054 116.746C42.696 117.068 43.0788 117.524 43.3539 118.114C43.629 118.704 43.7665 119.4 43.7665 120.202C43.7665 121.01 43.629 121.711 43.3539 122.305C43.0788 122.895 42.6976 123.352 42.2104 123.677C41.7232 123.998 41.1614 124.159 40.525 124.159C40.0345 124.159 39.6417 124.078 39.3468 123.915C39.0518 123.75 38.8248 123.562 38.6657 123.354C38.5066 123.142 38.3839 122.966 38.2978 122.827H38.1983V126.864H37.025ZM38.1784 120.182C38.1784 120.759 38.263 121.267 38.432 121.708C38.601 122.146 38.848 122.489 39.1728 122.737C39.4976 122.982 39.8953 123.105 40.3659 123.105C40.8565 123.105 41.2658 122.976 41.5939 122.717C41.9254 122.455 42.1739 122.104 42.3397 121.663C42.5087 121.219 42.5932 120.725 42.5932 120.182C42.5932 119.645 42.5104 119.161 42.3446 118.73C42.1822 118.296 41.9353 117.953 41.6039 117.701C41.2757 117.446 40.8631 117.318 40.3659 117.318C39.8887 117.318 39.4876 117.439 39.1628 117.681C38.838 117.92 38.5927 118.254 38.427 118.685C38.2613 119.113 38.1784 119.612 38.1784 120.182ZM45.5563 126.864V116.364H46.6898V117.577H46.829C46.9152 117.444 47.0345 117.275 47.187 117.07C47.3427 116.861 47.5648 116.675 47.8532 116.513C48.1448 116.347 48.5392 116.264 49.0364 116.264C49.6794 116.264 50.2462 116.425 50.7367 116.746C51.2272 117.068 51.61 117.524 51.8851 118.114C52.1602 118.704 52.2978 119.4 52.2978 120.202C52.2978 121.01 52.1602 121.711 51.8851 122.305C51.61 122.895 51.2289 123.352 50.7417 123.677C50.2544 123.998 49.6926 124.159 49.0563 124.159C48.5658 124.159 48.173 124.078 47.878 123.915C47.583 123.75 47.356 123.562 47.1969 123.354C47.0378 123.142 46.9152 122.966 46.829 122.827H46.7296V126.864H45.5563ZM46.7097 120.182C46.7097 120.759 46.7942 121.267 46.9632 121.708C47.1323 122.146 47.3792 122.489 47.704 122.737C48.0288 122.982 48.4266 123.105 48.8972 123.105C49.3877 123.105 49.7971 122.976 50.1252 122.717C50.4566 122.455 50.7052 122.104 50.8709 121.663C51.04 121.219 51.1245 120.725 51.1245 120.182C51.1245 119.645 51.0416 119.161 50.8759 118.73C50.7135 118.296 50.4666 117.953 50.1351 117.701C49.807 117.446 49.3944 117.318 48.8972 117.318C48.4199 117.318 48.0189 117.439 47.6941 117.681C47.3693 117.92 47.124 118.254 46.9583 118.685C46.7926 119.113 46.7097 119.612 46.7097 120.182Z" fill="#B6B6B6"/>
<path d="M172.082 124L169.298 113.818H170.551L172.679 122.111H172.778L174.946 113.818H176.338L178.506 122.111H178.605L180.733 113.818H181.986L179.202 124H177.929L175.682 115.886H175.602L173.355 124H172.082ZM185.754 124.159C185.065 124.159 184.46 123.995 183.94 123.667C183.423 123.339 183.018 122.88 182.727 122.29C182.438 121.7 182.294 121.01 182.294 120.222C182.294 119.426 182.438 118.732 182.727 118.138C183.018 117.545 183.423 117.085 183.94 116.756C184.46 116.428 185.065 116.264 185.754 116.264C186.444 116.264 187.047 116.428 187.564 116.756C188.084 117.085 188.489 117.545 188.777 118.138C189.069 118.732 189.214 119.426 189.214 120.222C189.214 121.01 189.069 121.7 188.777 122.29C188.489 122.88 188.084 123.339 187.564 123.667C187.047 123.995 186.444 124.159 185.754 124.159ZM185.754 123.105C186.278 123.105 186.709 122.971 187.047 122.702C187.385 122.434 187.635 122.081 187.798 121.643C187.96 121.206 188.041 120.732 188.041 120.222C188.041 119.711 187.96 119.236 187.798 118.795C187.635 118.354 187.385 117.998 187.047 117.726C186.709 117.454 186.278 117.318 185.754 117.318C185.231 117.318 184.8 117.454 184.462 117.726C184.124 117.998 183.873 118.354 183.711 118.795C183.549 119.236 183.467 119.711 183.467 120.222C183.467 120.732 183.549 121.206 183.711 121.643C183.873 122.081 184.124 122.434 184.462 122.702C184.8 122.971 185.231 123.105 185.754 123.105ZM191.006 124V116.364H192.139V117.517H192.219C192.358 117.139 192.61 116.833 192.974 116.597C193.339 116.362 193.75 116.244 194.207 116.244C194.293 116.244 194.401 116.246 194.53 116.249C194.66 116.253 194.757 116.258 194.824 116.264V117.457C194.784 117.447 194.693 117.433 194.55 117.413C194.411 117.389 194.264 117.378 194.108 117.378C193.737 117.378 193.405 117.456 193.113 117.612C192.825 117.764 192.596 117.976 192.427 118.248C192.262 118.516 192.179 118.823 192.179 119.168V124H191.006ZM197.308 121.216L197.288 119.764H197.527L200.868 116.364H202.32L198.76 119.963H198.661L197.308 121.216ZM196.214 124V113.818H197.388V124H196.214ZM201.067 124L198.084 120.222L198.919 119.406L202.558 124H201.067ZM206.717 124.159C205.981 124.159 205.346 123.997 204.813 123.672C204.283 123.344 203.873 122.886 203.585 122.3C203.3 121.71 203.157 121.024 203.157 120.241C203.157 119.459 203.3 118.77 203.585 118.173C203.873 117.573 204.274 117.106 204.788 116.771C205.305 116.433 205.908 116.264 206.598 116.264C206.995 116.264 207.388 116.33 207.776 116.463C208.164 116.596 208.517 116.811 208.835 117.109C209.153 117.404 209.407 117.795 209.596 118.283C209.784 118.77 209.879 119.37 209.879 120.082V120.58H203.993V119.565H208.686C208.686 119.134 208.6 118.75 208.427 118.412C208.258 118.074 208.016 117.807 207.701 117.612C207.39 117.416 207.022 117.318 206.598 117.318C206.13 117.318 205.726 117.434 205.385 117.666C205.047 117.895 204.786 118.193 204.604 118.561C204.422 118.929 204.331 119.323 204.331 119.744V120.42C204.331 120.997 204.43 121.486 204.629 121.887C204.831 122.285 205.111 122.588 205.469 122.797C205.827 123.002 206.243 123.105 206.717 123.105C207.025 123.105 207.304 123.062 207.552 122.976C207.804 122.886 208.021 122.754 208.203 122.578C208.386 122.399 208.527 122.177 208.626 121.912L209.76 122.23C209.64 122.615 209.44 122.953 209.158 123.244C208.876 123.533 208.528 123.758 208.114 123.92C207.7 124.08 207.234 124.159 206.717 124.159ZM211.664 124V116.364H212.797V117.517H212.877C213.016 117.139 213.268 116.833 213.632 116.597C213.997 116.362 214.408 116.244 214.865 116.244C214.952 116.244 215.059 116.246 215.189 116.249C215.318 116.253 215.416 116.258 215.482 116.264V117.457C215.442 117.447 215.351 117.433 215.208 117.413C215.069 117.389 214.922 117.378 214.766 117.378C214.395 117.378 214.063 117.456 213.772 117.612C213.483 117.764 213.255 117.976 213.086 118.248C212.92 118.516 212.837 118.823 212.837 119.168V124H211.664Z" fill="#B6B6B6"/>
<path d="M340.915 113.818H342.148V120.56C342.148 121.256 341.984 121.877 341.656 122.424C341.331 122.968 340.872 123.397 340.278 123.712C339.685 124.023 338.989 124.179 338.19 124.179C337.392 124.179 336.696 124.023 336.102 123.712C335.509 123.397 335.048 122.968 334.72 122.424C334.395 121.877 334.233 121.256 334.233 120.56V113.818H335.466V120.46C335.466 120.957 335.575 121.4 335.794 121.788C336.013 122.172 336.324 122.475 336.729 122.697C337.136 122.916 337.624 123.026 338.19 123.026C338.757 123.026 339.244 122.916 339.652 122.697C340.06 122.475 340.371 122.172 340.587 121.788C340.805 121.4 340.915 120.957 340.915 120.46V113.818ZM349.86 118.074L348.806 118.372C348.74 118.196 348.642 118.026 348.513 117.86C348.387 117.691 348.214 117.552 347.996 117.442C347.777 117.333 347.497 117.278 347.155 117.278C346.688 117.278 346.299 117.386 345.987 117.602C345.679 117.814 345.525 118.084 345.525 118.412C345.525 118.704 345.631 118.934 345.843 119.103C346.055 119.272 346.386 119.413 346.837 119.526L347.971 119.804C348.653 119.97 349.162 120.223 349.497 120.565C349.832 120.903 349.999 121.339 349.999 121.872C349.999 122.31 349.873 122.701 349.621 123.045C349.373 123.39 349.025 123.662 348.577 123.861C348.13 124.06 347.609 124.159 347.016 124.159C346.237 124.159 345.593 123.99 345.082 123.652C344.572 123.314 344.249 122.82 344.113 122.17L345.226 121.892C345.332 122.303 345.533 122.611 345.828 122.817C346.126 123.022 346.516 123.125 346.996 123.125C347.543 123.125 347.977 123.009 348.299 122.777C348.624 122.542 348.786 122.26 348.786 121.932C348.786 121.667 348.693 121.445 348.508 121.266C348.322 121.083 348.037 120.947 347.653 120.858L346.38 120.56C345.68 120.394 345.167 120.137 344.839 119.789C344.514 119.438 344.351 118.999 344.351 118.472C344.351 118.041 344.472 117.66 344.714 117.328C344.96 116.997 345.293 116.737 345.714 116.548C346.138 116.359 346.618 116.264 347.155 116.264C347.911 116.264 348.504 116.43 348.935 116.761C349.369 117.093 349.678 117.53 349.86 118.074ZM354.967 124.159C354.231 124.159 353.596 123.997 353.063 123.672C352.533 123.344 352.123 122.886 351.835 122.3C351.55 121.71 351.407 121.024 351.407 120.241C351.407 119.459 351.55 118.77 351.835 118.173C352.123 117.573 352.524 117.106 353.038 116.771C353.555 116.433 354.158 116.264 354.848 116.264C355.245 116.264 355.638 116.33 356.026 116.463C356.414 116.596 356.767 116.811 357.085 117.109C357.403 117.404 357.657 117.795 357.846 118.283C358.034 118.77 358.129 119.37 358.129 120.082V120.58H352.243V119.565H356.936C356.936 119.134 356.85 118.75 356.677 118.412C356.508 118.074 356.266 117.807 355.951 117.612C355.64 117.416 355.272 117.318 354.848 117.318C354.38 117.318 353.976 117.434 353.635 117.666C353.297 117.895 353.036 118.193 352.854 118.561C352.672 118.929 352.581 119.323 352.581 119.744V120.42C352.581 120.997 352.68 121.486 352.879 121.887C353.081 122.285 353.361 122.588 353.719 122.797C354.077 123.002 354.493 123.105 354.967 123.105C355.275 123.105 355.554 123.062 355.802 122.976C356.054 122.886 356.271 122.754 356.453 122.578C356.636 122.399 356.777 122.177 356.876 121.912L358.01 122.23C357.89 122.615 357.69 122.953 357.408 123.244C357.126 123.533 356.778 123.758 356.364 123.92C355.95 124.08 355.484 124.159 354.967 124.159ZM359.914 124V116.364H361.047V117.517H361.127C361.266 117.139 361.518 116.833 361.882 116.597C362.247 116.362 362.658 116.244 363.115 116.244C363.202 116.244 363.309 116.246 363.439 116.249C363.568 116.253 363.666 116.258 363.732 116.264V117.457C363.692 117.447 363.601 117.433 363.458 117.413C363.319 117.389 363.172 117.378 363.016 117.378C362.645 117.378 362.313 117.456 362.022 117.612C361.733 117.764 361.505 117.976 361.336 118.248C361.17 118.516 361.087 118.823 361.087 119.168V124H359.914Z" fill="#B6B6B6"/>
<defs>
<linearGradient id="paint0_linear_59_391" x1="22.7487" y1="7.8073e-07" x2="-23.6087" y2="5.71978" gradientUnits="userSpaceOnUse">
<stop stop-color="#0D6EFD"/>
<stop offset="1" stop-color="#103B7B"/>
</linearGradient>
<linearGradient id="paint1_linear_59_391" x1="22.8115" y1="0" x2="22.8115" y2="45.6231" gradientUnits="userSpaceOnUse">
<stop stop-color="#0D6EFD"/>
<stop offset="1" stop-color="#103B7B"/>
</linearGradient>
<linearGradient id="paint2_linear_59_391" x1="37.5103" y1="16.5643" x2="4.1298" y2="40.3608" gradientUnits="userSpaceOnUse">
<stop stop-color="#0D6EFD"/>
<stop offset="1" stop-color="#103B7B"/>
</linearGradient>
<linearGradient id="paint3_linear_59_391" x1="37.9465" y1="-8.92559" x2="-15.3883" y2="-5.73405" gradientUnits="userSpaceOnUse">
<stop stop-color="#0067FF"/>
<stop offset="1" stop-color="#3F8CFF"/>
</linearGradient>
<linearGradient id="paint4_linear_59_391" x1="25.1232" y1="25.1232" x2="22.9394" y2="-12.257" gradientUnits="userSpaceOnUse">
<stop stop-color="#0D6EFD"/>
<stop offset="1" stop-color="#103B7B"/>
</linearGradient>
<linearGradient id="paint5_linear_59_391" x1="22.8031" y1="0" x2="22.8031" y2="45.4974" gradientUnits="userSpaceOnUse">
<stop stop-color="#0D6EFD"/>
<stop offset="1" stop-color="#103B7B"/>
</linearGradient>
<linearGradient id="paint6_linear_59_391" x1="22.7487" y1="0" x2="22.7487" y2="45.8247" gradientUnits="userSpaceOnUse">
<stop stop-color="#0D6EFD"/>
<stop offset="1" stop-color="#103B7B"/>
</linearGradient>
<linearGradient id="paint7_linear_59_391" x1="172.592" y1="36.3868" x2="152.908" y2="70.4813" gradientUnits="userSpaceOnUse">
<stop stop-color="#103B7B"/>
<stop offset="1" stop-color="#1C5BB9"/>
</linearGradient>
<linearGradient id="paint8_linear_59_391" x1="37.5103" y1="16.5643" x2="4.1298" y2="40.3608" gradientUnits="userSpaceOnUse">
<stop stop-color="#0D6EFD"/>
<stop offset="1" stop-color="#103B7B"/>
</linearGradient>
<linearGradient id="paint9_linear_59_391" x1="37.9465" y1="-8.92559" x2="-15.3883" y2="-5.73405" gradientUnits="userSpaceOnUse">
<stop stop-color="#0067FF"/>
<stop offset="1" stop-color="#3F8CFF"/>
</linearGradient>
<linearGradient id="paint10_linear_59_391" x1="25.1232" y1="25.1232" x2="22.9394" y2="-12.257" gradientUnits="userSpaceOnUse">
<stop stop-color="#0D6EFD"/>
<stop offset="1" stop-color="#103B7B"/>
</linearGradient>
<linearGradient id="paint11_linear_59_391" x1="351.765" y1="40.3205" x2="332.756" y2="50.9917" gradientUnits="userSpaceOnUse">
<stop stop-color="#0D6EFD"/>
<stop offset="1" stop-color="#0E4FAE"/>
</linearGradient>
</defs>
</svg>
