<svg width="394" height="135" viewBox="0 0 394 135" fill="none" xmlns="http://www.w3.org/2000/svg">
<line x1="79" y1="54.5" x2="88" y2="54.5" stroke="#D9D9D9"/>
<line x1="92" y1="54.5" x2="101" y2="54.5" stroke="#D9D9D9"/>
<line x1="105" y1="54.5" x2="114" y2="54.5" stroke="#D9D9D9"/>
<line x1="118" y1="54.5" x2="127" y2="54.5" stroke="#D9D9D9"/>
<line x1="131" y1="54.5" x2="140" y2="54.5" stroke="#D9D9D9"/>
<line x1="249" y1="54.5" x2="258" y2="54.5" stroke="#D9D9D9"/>
<line x1="262" y1="54.5" x2="271" y2="54.5" stroke="#D9D9D9"/>
<line x1="275" y1="54.5" x2="284" y2="54.5" stroke="#D9D9D9"/>
<line x1="288" y1="54.5" x2="297" y2="54.5" stroke="#D9D9D9"/>
<line x1="301" y1="54.5" x2="310" y2="54.5" stroke="#D9D9D9"/>
<rect width="45.4974" height="45.8247" rx="4" transform="matrix(0.866025 -0.5 2.20305e-08 1 155 24.7487)" stroke="url(#paint0_linear_59_390)" stroke-width="5" stroke-linejoin="round"/>
<rect width="45.6231" height="45.6231" rx="4" transform="matrix(0.866025 -0.5 0.866025 0.5 155 70.5723)" stroke="url(#paint1_linear_59_390)" stroke-width="5" stroke-linejoin="bevel"/>
<rect width="31.5784" height="31.5784" transform="matrix(0.866025 -0.5 2.20305e-08 1 194.435 47.5544)" fill="url(#paint2_linear_59_390)"/>
<rect width="31.5784" height="31.5784" transform="matrix(0.866025 0.5 -2.20305e-08 1 167.087 31.7652)" fill="url(#paint3_linear_59_390)"/>
<rect width="31.5784" height="31.5784" transform="matrix(0.866025 -0.5 0.866025 0.5 167.087 31.7652)" fill="url(#paint4_linear_59_390)"/>
<rect width="45.6061" height="45.4974" transform="matrix(0.866025 -0.5 0.866025 0.5 155 24.8031)" stroke="url(#paint5_linear_59_390)" stroke-width="5" stroke-linejoin="bevel"/>
<rect width="45.4974" height="45.8247" transform="matrix(0.866025 -0.5 2.20305e-08 1 194.62 47.5518)" stroke="url(#paint6_linear_59_390)" stroke-width="5" stroke-linejoin="bevel"/>
<path d="M155 26.0753C155 25.523 155.388 25.2991 155.866 25.5753L193.318 47.1983C193.796 47.4744 194.184 48.146 194.184 48.6983L194.184 92.1577C194.184 92.71 193.796 92.9338 193.318 92.6577L155.866 71.0347C155.388 70.7586 155 70.087 155 69.5347L155 26.0753Z" stroke="url(#paint7_linear_59_390)" stroke-width="5"/>
<rect width="31.5784" height="31.5784" transform="matrix(0.866025 -0.5 2.20305e-08 1 38.3478 47.5784)" fill="url(#paint8_linear_59_390)"/>
<rect width="31.5784" height="31.5784" transform="matrix(0.866025 0.5 -2.20305e-08 1 11 31.7892)" fill="url(#paint9_linear_59_390)"/>
<rect width="31.5784" height="31.5784" transform="matrix(0.866025 -0.5 0.866025 0.5 11 31.7892)" fill="url(#paint10_linear_59_390)"/>
<rect opacity="0.5" y="110" width="72" height="25" rx="3" fill="#3F434B"/>
<rect opacity="0.5" x="158" y="110" width="72" height="25" rx="3" fill="#3F434B"/>
<rect opacity="0.5" x="316" y="110" width="72" height="25" rx="3" fill="#3F434B"/>
<path d="M22.8682 128H19.7261V117.818H23.0074C23.9951 117.818 24.8402 118.022 25.5429 118.43C26.2455 118.834 26.7841 119.416 27.1586 120.175C27.5332 120.93 27.7204 121.835 27.7204 122.889C27.7204 123.95 27.5315 124.863 27.1537 125.629C26.7758 126.391 26.2256 126.978 25.5031 127.388C24.7806 127.796 23.9023 128 22.8682 128ZM20.9591 126.906H22.7886C23.6305 126.906 24.3282 126.744 24.8817 126.419C25.4352 126.094 25.8478 125.632 26.1196 125.032C26.3914 124.432 26.5273 123.718 26.5273 122.889C26.5273 122.067 26.393 121.36 26.1246 120.766C25.8561 120.17 25.455 119.712 24.9214 119.394C24.3878 119.073 23.7233 118.912 22.9278 118.912H20.9591V126.906ZM31.8767 128.179C31.3928 128.179 30.9536 128.088 30.5592 127.906C30.1648 127.72 29.8516 127.453 29.6196 127.105C29.3876 126.754 29.2716 126.33 29.2716 125.832C29.2716 125.395 29.3577 125.04 29.5301 124.768C29.7024 124.493 29.9328 124.278 30.2211 124.122C30.5095 123.966 30.8277 123.85 31.1757 123.774C31.527 123.695 31.88 123.632 32.2346 123.585C32.6987 123.526 33.0748 123.481 33.3632 123.451C33.6549 123.418 33.867 123.363 33.9996 123.287C34.1354 123.211 34.2034 123.078 34.2034 122.889V122.849C34.2034 122.359 34.0692 121.978 33.8007 121.706C33.5355 121.434 33.1328 121.298 32.5926 121.298C32.0325 121.298 31.5933 121.421 31.2751 121.666C30.9569 121.911 30.7332 122.173 30.604 122.452L29.4903 122.054C29.6892 121.59 29.9543 121.229 30.2858 120.97C30.6205 120.708 30.9851 120.526 31.3795 120.423C31.7773 120.317 32.1684 120.264 32.5528 120.264C32.7981 120.264 33.0798 120.294 33.398 120.354C33.7195 120.41 34.0294 120.528 34.3277 120.707C34.6293 120.886 34.8795 121.156 35.0784 121.517C35.2773 121.878 35.3767 122.362 35.3767 122.969V128H34.2034V126.966H34.1437C34.0642 127.132 33.9316 127.309 33.746 127.498C33.5604 127.687 33.3135 127.848 33.0052 127.98C32.697 128.113 32.3208 128.179 31.8767 128.179ZM32.0557 127.125C32.5197 127.125 32.9108 127.034 33.229 126.852C33.5505 126.669 33.7924 126.434 33.9548 126.146C34.1205 125.857 34.2034 125.554 34.2034 125.236V124.162C34.1537 124.222 34.0443 124.276 33.8753 124.326C33.7095 124.372 33.5173 124.414 33.2986 124.45C33.0831 124.483 32.8727 124.513 32.6672 124.54C32.465 124.563 32.3009 124.583 32.175 124.599C31.8701 124.639 31.585 124.704 31.3199 124.793C31.058 124.879 30.8459 125.01 30.6835 125.186C30.5244 125.358 30.4449 125.594 30.4449 125.892C30.4449 126.3 30.5957 126.608 30.8973 126.817C31.2022 127.022 31.5883 127.125 32.0557 127.125ZM37.5182 130.864V120.364H38.6517V121.577H38.7909C38.8771 121.444 38.9964 121.275 39.1489 121.07C39.3047 120.861 39.5267 120.675 39.8151 120.513C40.1067 120.347 40.5012 120.264 40.9983 120.264C41.6413 120.264 42.2081 120.425 42.6986 120.746C43.1891 121.068 43.5719 121.524 43.847 122.114C44.1221 122.704 44.2597 123.4 44.2597 124.202C44.2597 125.01 44.1221 125.711 43.847 126.305C43.5719 126.895 43.1908 127.352 42.7036 127.677C42.2164 127.998 41.6546 128.159 41.0182 128.159C40.5277 128.159 40.1349 128.078 39.8399 127.915C39.545 127.75 39.3179 127.562 39.1588 127.354C38.9997 127.142 38.8771 126.966 38.7909 126.827H38.6915V130.864H37.5182ZM38.6716 124.182C38.6716 124.759 38.7561 125.267 38.9252 125.708C39.0942 126.146 39.3411 126.489 39.6659 126.737C39.9907 126.982 40.3885 127.105 40.8591 127.105C41.3496 127.105 41.759 126.976 42.0871 126.717C42.4185 126.455 42.6671 126.104 42.8328 125.663C43.0019 125.219 43.0864 124.725 43.0864 124.182C43.0864 123.645 43.0035 123.161 42.8378 122.73C42.6754 122.296 42.4285 121.953 42.097 121.701C41.7689 121.446 41.3563 121.318 40.8591 121.318C40.3818 121.318 39.9808 121.439 39.656 121.681C39.3312 121.92 39.0859 122.254 38.9202 122.685C38.7545 123.113 38.6716 123.612 38.6716 124.182ZM46.0494 130.864V120.364H47.183V121.577H47.3222C47.4084 121.444 47.5277 121.275 47.6801 121.07C47.8359 120.861 48.058 120.675 48.3463 120.513C48.638 120.347 49.0324 120.264 49.5296 120.264C50.1726 120.264 50.7393 120.425 51.2298 120.746C51.7204 121.068 52.1032 121.524 52.3783 122.114C52.6534 122.704 52.7909 123.4 52.7909 124.202C52.7909 125.01 52.6534 125.711 52.3783 126.305C52.1032 126.895 51.722 127.352 51.2348 127.677C50.7476 127.998 50.1858 128.159 49.5494 128.159C49.0589 128.159 48.6662 128.078 48.3712 127.915C48.0762 127.75 47.8492 127.562 47.6901 127.354C47.531 127.142 47.4084 126.966 47.3222 126.827H47.2227V130.864H46.0494ZM47.2029 124.182C47.2029 124.759 47.2874 125.267 47.4564 125.708C47.6254 126.146 47.8724 126.489 48.1972 126.737C48.522 126.982 48.9197 127.105 49.3904 127.105C49.8809 127.105 50.2902 126.976 50.6183 126.717C50.9498 126.455 51.1984 126.104 51.3641 125.663C51.5331 125.219 51.6176 124.725 51.6176 124.182C51.6176 123.645 51.5348 123.161 51.3691 122.73C51.2066 122.296 50.9597 121.953 50.6283 121.701C50.3002 121.446 49.8875 121.318 49.3904 121.318C48.9131 121.318 48.512 121.439 48.1872 121.681C47.8624 121.92 47.6172 122.254 47.4514 122.685C47.2857 123.113 47.2029 123.612 47.2029 124.182Z" fill="#B6B6B6"/>
<path d="M173.683 128L170.899 117.818H172.152L174.28 126.111H174.379L176.547 117.818H177.939L180.106 126.111H180.206L182.334 117.818H183.586L180.802 128H179.53L177.282 119.886H177.203L174.956 128H173.683ZM187.355 128.159C186.665 128.159 186.061 127.995 185.54 127.667C185.023 127.339 184.619 126.88 184.327 126.29C184.039 125.7 183.895 125.01 183.895 124.222C183.895 123.426 184.039 122.732 184.327 122.138C184.619 121.545 185.023 121.085 185.54 120.756C186.061 120.428 186.665 120.264 187.355 120.264C188.044 120.264 188.647 120.428 189.165 120.756C189.685 121.085 190.089 121.545 190.378 122.138C190.669 122.732 190.815 123.426 190.815 124.222C190.815 125.01 190.669 125.7 190.378 126.29C190.089 126.88 189.685 127.339 189.165 127.667C188.647 127.995 188.044 128.159 187.355 128.159ZM187.355 127.105C187.879 127.105 188.309 126.971 188.647 126.702C188.986 126.434 189.236 126.081 189.398 125.643C189.561 125.206 189.642 124.732 189.642 124.222C189.642 123.711 189.561 123.236 189.398 122.795C189.236 122.354 188.986 121.998 188.647 121.726C188.309 121.454 187.879 121.318 187.355 121.318C186.831 121.318 186.4 121.454 186.062 121.726C185.724 121.998 185.474 122.354 185.312 122.795C185.149 123.236 185.068 123.711 185.068 124.222C185.068 124.732 185.149 125.206 185.312 125.643C185.474 126.081 185.724 126.434 186.062 126.702C186.4 126.971 186.831 127.105 187.355 127.105ZM192.606 128V120.364H193.74V121.517H193.819C193.958 121.139 194.21 120.833 194.575 120.597C194.939 120.362 195.35 120.244 195.808 120.244C195.894 120.244 196.002 120.246 196.131 120.249C196.26 120.253 196.358 120.258 196.424 120.264V121.457C196.384 121.447 196.293 121.433 196.151 121.413C196.012 121.389 195.864 121.378 195.708 121.378C195.337 121.378 195.006 121.456 194.714 121.612C194.426 121.764 194.197 121.976 194.028 122.248C193.862 122.516 193.779 122.823 193.779 123.168V128H192.606ZM198.909 125.216L198.889 123.764H199.128L202.468 120.364H203.92L200.361 123.963H200.261L198.909 125.216ZM197.815 128V117.818H198.988V128H197.815ZM202.667 128L199.684 124.222L200.52 123.406L204.159 128H202.667ZM208.318 128.159C207.582 128.159 206.947 127.997 206.413 127.672C205.883 127.344 205.474 126.886 205.185 126.3C204.9 125.71 204.758 125.024 204.758 124.241C204.758 123.459 204.9 122.77 205.185 122.173C205.474 121.573 205.875 121.106 206.389 120.771C206.906 120.433 207.509 120.264 208.198 120.264C208.596 120.264 208.989 120.33 209.377 120.463C209.764 120.596 210.117 120.811 210.435 121.109C210.754 121.404 211.007 121.795 211.196 122.283C211.385 122.77 211.479 123.37 211.479 124.082V124.58H205.593V123.565H210.286C210.286 123.134 210.2 122.75 210.028 122.412C209.859 122.074 209.617 121.807 209.302 121.612C208.99 121.416 208.622 121.318 208.198 121.318C207.731 121.318 207.327 121.434 206.985 121.666C206.647 121.895 206.387 122.193 206.205 122.561C206.022 122.929 205.931 123.323 205.931 123.744V124.42C205.931 124.997 206.031 125.486 206.229 125.887C206.432 126.285 206.712 126.588 207.07 126.797C207.428 127.002 207.844 127.105 208.318 127.105C208.626 127.105 208.904 127.062 209.153 126.976C209.405 126.886 209.622 126.754 209.804 126.578C209.986 126.399 210.127 126.177 210.227 125.912L211.36 126.23C211.241 126.615 211.04 126.953 210.759 127.244C210.477 127.533 210.129 127.758 209.715 127.92C209.3 128.08 208.835 128.159 208.318 128.159ZM213.264 128V120.364H214.398V121.517H214.477C214.617 121.139 214.868 120.833 215.233 120.597C215.598 120.362 216.009 120.244 216.466 120.244C216.552 120.244 216.66 120.246 216.789 120.249C216.918 120.253 217.016 120.258 217.082 120.264V121.457C217.043 121.447 216.952 121.433 216.809 121.413C216.67 121.389 216.522 121.378 216.367 121.378C215.995 121.378 215.664 121.456 215.372 121.612C215.084 121.764 214.855 121.976 214.686 122.248C214.52 122.516 214.438 122.823 214.438 123.168V128H213.264Z" fill="#B6B6B6"/>
<path d="M321.501 128V117.818H327.645V118.912H322.733V122.352H327.327V123.446H322.733V126.906H327.725V128H321.501ZM333.03 120.364V121.358H329.072V120.364H333.03ZM330.226 118.534H331.399V125.812C331.399 126.144 331.447 126.393 331.543 126.558C331.643 126.721 331.769 126.83 331.921 126.886C332.077 126.939 332.241 126.966 332.413 126.966C332.542 126.966 332.648 126.959 332.731 126.946C332.814 126.929 332.881 126.916 332.93 126.906L333.169 127.96C333.089 127.99 332.978 128.02 332.836 128.05C332.693 128.083 332.513 128.099 332.294 128.099C331.962 128.099 331.638 128.028 331.319 127.886C331.005 127.743 330.743 127.526 330.534 127.234C330.328 126.943 330.226 126.575 330.226 126.131V118.534ZM336.132 123.406V128H334.959V117.818H336.132V121.557H336.231C336.41 121.162 336.679 120.849 337.037 120.617C337.398 120.382 337.879 120.264 338.479 120.264C338.999 120.264 339.455 120.369 339.846 120.577C340.237 120.783 340.54 121.099 340.756 121.527C340.974 121.951 341.084 122.491 341.084 123.148V128H339.91V123.227C339.91 122.621 339.753 122.152 339.438 121.82C339.126 121.486 338.694 121.318 338.14 121.318C337.756 121.318 337.411 121.399 337.106 121.562C336.805 121.724 336.566 121.961 336.39 122.273C336.218 122.584 336.132 122.962 336.132 123.406ZM346.432 128.159C345.696 128.159 345.061 127.997 344.528 127.672C343.997 127.344 343.588 126.886 343.3 126.3C343.015 125.71 342.872 125.024 342.872 124.241C342.872 123.459 343.015 122.77 343.3 122.173C343.588 121.573 343.989 121.106 344.503 120.771C345.02 120.433 345.623 120.264 346.312 120.264C346.71 120.264 347.103 120.33 347.491 120.463C347.879 120.596 348.232 120.811 348.55 121.109C348.868 121.404 349.121 121.795 349.31 122.283C349.499 122.77 349.594 123.37 349.594 124.082V124.58H343.707V123.565H348.401C348.401 123.134 348.314 122.75 348.142 122.412C347.973 122.074 347.731 121.807 347.416 121.612C347.105 121.416 346.737 121.318 346.312 121.318C345.845 121.318 345.441 121.434 345.099 121.666C344.761 121.895 344.501 122.193 344.319 122.561C344.137 122.929 344.045 123.323 344.045 123.744V124.42C344.045 124.997 344.145 125.486 344.344 125.887C344.546 126.285 344.826 126.588 345.184 126.797C345.542 127.002 345.958 127.105 346.432 127.105C346.74 127.105 347.018 127.062 347.267 126.976C347.519 126.886 347.736 126.754 347.918 126.578C348.101 126.399 348.241 126.177 348.341 125.912L349.474 126.23C349.355 126.615 349.155 126.953 348.873 127.244C348.591 127.533 348.243 127.758 347.829 127.92C347.415 128.08 346.949 128.159 346.432 128.159ZM351.379 128V120.364H352.512V121.517H352.592C352.731 121.139 352.983 120.833 353.347 120.597C353.712 120.362 354.123 120.244 354.58 120.244C354.666 120.244 354.774 120.246 354.903 120.249C355.033 120.253 355.13 120.258 355.197 120.264V121.457C355.157 121.447 355.066 121.433 354.923 121.413C354.784 121.389 354.637 121.378 354.481 121.378C354.11 121.378 353.778 121.456 353.487 121.612C353.198 121.764 352.969 121.976 352.8 122.248C352.635 122.516 352.552 122.823 352.552 123.168V128H351.379ZM359.557 128.159C358.821 128.159 358.186 127.997 357.653 127.672C357.122 127.344 356.713 126.886 356.425 126.3C356.14 125.71 355.997 125.024 355.997 124.241C355.997 123.459 356.14 122.77 356.425 122.173C356.713 121.573 357.114 121.106 357.628 120.771C358.145 120.433 358.748 120.264 359.438 120.264C359.835 120.264 360.228 120.33 360.616 120.463C361.004 120.596 361.357 120.811 361.675 121.109C361.993 121.404 362.246 121.795 362.435 122.283C362.624 122.77 362.719 123.37 362.719 124.082V124.58H356.832V123.565H361.526C361.526 123.134 361.439 122.75 361.267 122.412C361.098 122.074 360.856 121.807 360.541 121.612C360.23 121.416 359.862 121.318 359.438 121.318C358.97 121.318 358.566 121.434 358.224 121.666C357.886 121.895 357.626 122.193 357.444 122.561C357.262 122.929 357.17 123.323 357.17 123.744V124.42C357.17 124.997 357.27 125.486 357.469 125.887C357.671 126.285 357.951 126.588 358.309 126.797C358.667 127.002 359.083 127.105 359.557 127.105C359.865 127.105 360.143 127.062 360.392 126.976C360.644 126.886 360.861 126.754 361.043 126.578C361.226 126.399 361.366 126.177 361.466 125.912L362.599 126.23C362.48 126.615 362.28 126.953 361.998 127.244C361.716 127.533 361.368 127.758 360.954 127.92C360.54 128.08 360.074 128.159 359.557 128.159ZM369.316 124.878V120.364H370.489V128H369.316V126.707H369.237C369.058 127.095 368.779 127.425 368.401 127.697C368.023 127.965 367.546 128.099 366.969 128.099C366.492 128.099 366.068 127.995 365.697 127.786C365.326 127.574 365.034 127.256 364.822 126.832C364.61 126.404 364.504 125.866 364.504 125.216V120.364H365.677V125.136C365.677 125.693 365.833 126.137 366.144 126.469C366.459 126.8 366.86 126.966 367.347 126.966C367.639 126.966 367.936 126.891 368.237 126.742C368.542 126.593 368.797 126.364 369.003 126.056C369.212 125.748 369.316 125.355 369.316 124.878ZM372.638 128V120.364H373.772V121.557H373.871C374.03 121.149 374.287 120.833 374.642 120.607C374.997 120.379 375.422 120.264 375.92 120.264C376.423 120.264 376.843 120.379 377.177 120.607C377.515 120.833 377.779 121.149 377.968 121.557H378.047C378.243 121.162 378.536 120.849 378.927 120.617C379.318 120.382 379.787 120.264 380.334 120.264C381.017 120.264 381.576 120.478 382.01 120.906C382.444 121.33 382.661 121.991 382.661 122.889V128H381.488V122.889C381.488 122.326 381.334 121.923 381.025 121.681C380.717 121.439 380.354 121.318 379.937 121.318C379.4 121.318 378.984 121.481 378.689 121.805C378.394 122.127 378.246 122.535 378.246 123.028V128H377.053V122.77C377.053 122.336 376.912 121.986 376.631 121.721C376.349 121.452 375.986 121.318 375.542 121.318C375.237 121.318 374.952 121.399 374.687 121.562C374.425 121.724 374.213 121.95 374.05 122.238C373.891 122.523 373.812 122.853 373.812 123.227V128H372.638Z" fill="#B6B6B6"/>
<path d="M350.416 4L349.826 6.0054V64.1924L350.416 64.7814L377.426 48.816L350.416 4Z" fill="#0F4697"/>
<path d="M350.416 4L323.407 48.816L350.416 64.7814V36.539V4Z" fill="#0D6CF8"/>
<path d="M350.416 69.8951L350.084 70.3009V91.028L350.416 91.9993L377.442 53.938L350.416 69.8951Z" fill="#12366B"/>
<path d="M350.416 91.9993V69.8951L323.407 53.938L350.416 91.9993Z" fill="#0D6CF8"/>
<path d="M350.416 64.7814L377.426 48.816L350.416 36.539V64.7814Z" fill="#061C3D"/>
<path d="M323.407 48.816L350.416 64.7814V36.539L323.407 48.816Z" fill="#0F4AA3"/>
<defs>
<linearGradient id="paint0_linear_59_390" x1="22.7487" y1="7.8073e-07" x2="-23.6087" y2="5.71978" gradientUnits="userSpaceOnUse">
<stop stop-color="#0D6EFD"/>
<stop offset="1" stop-color="#103B7B"/>
</linearGradient>
<linearGradient id="paint1_linear_59_390" x1="22.8115" y1="0" x2="22.8115" y2="45.6231" gradientUnits="userSpaceOnUse">
<stop stop-color="#0D6EFD"/>
<stop offset="1" stop-color="#103B7B"/>
</linearGradient>
<linearGradient id="paint2_linear_59_390" x1="37.5103" y1="16.5643" x2="4.1298" y2="40.3608" gradientUnits="userSpaceOnUse">
<stop stop-color="#0D6EFD"/>
<stop offset="1" stop-color="#103B7B"/>
</linearGradient>
<linearGradient id="paint3_linear_59_390" x1="37.9465" y1="-8.92559" x2="-15.3883" y2="-5.73405" gradientUnits="userSpaceOnUse">
<stop stop-color="#0067FF"/>
<stop offset="1" stop-color="#3F8CFF"/>
</linearGradient>
<linearGradient id="paint4_linear_59_390" x1="25.1232" y1="25.1232" x2="22.9394" y2="-12.257" gradientUnits="userSpaceOnUse">
<stop stop-color="#0D6EFD"/>
<stop offset="1" stop-color="#103B7B"/>
</linearGradient>
<linearGradient id="paint5_linear_59_390" x1="22.8031" y1="0" x2="22.8031" y2="45.4974" gradientUnits="userSpaceOnUse">
<stop stop-color="#0D6EFD"/>
<stop offset="1" stop-color="#103B7B"/>
</linearGradient>
<linearGradient id="paint6_linear_59_390" x1="22.7487" y1="0" x2="22.7487" y2="45.8247" gradientUnits="userSpaceOnUse">
<stop stop-color="#0D6EFD"/>
<stop offset="1" stop-color="#103B7B"/>
</linearGradient>
<linearGradient id="paint7_linear_59_390" x1="174.592" y1="36.3868" x2="154.908" y2="70.4813" gradientUnits="userSpaceOnUse">
<stop stop-color="#103B7B"/>
<stop offset="1" stop-color="#1C5BB9"/>
</linearGradient>
<linearGradient id="paint8_linear_59_390" x1="37.5103" y1="16.5643" x2="4.1298" y2="40.3608" gradientUnits="userSpaceOnUse">
<stop stop-color="#0D6EFD"/>
<stop offset="1" stop-color="#103B7B"/>
</linearGradient>
<linearGradient id="paint9_linear_59_390" x1="37.9465" y1="-8.92559" x2="-15.3883" y2="-5.73405" gradientUnits="userSpaceOnUse">
<stop stop-color="#0067FF"/>
<stop offset="1" stop-color="#3F8CFF"/>
</linearGradient>
<linearGradient id="paint10_linear_59_390" x1="25.1232" y1="25.1232" x2="22.9394" y2="-12.257" gradientUnits="userSpaceOnUse">
<stop stop-color="#0D6EFD"/>
<stop offset="1" stop-color="#103B7B"/>
</linearGradient>
</defs>
</svg>
