<svg width="380" height="239" viewBox="0 0 380 239" fill="none" xmlns="http://www.w3.org/2000/svg">
<g filter="url(#filter0_f_49_377)">
<path d="M30 67C30 46.5655 46.5655 30 67 30H313C333.435 30 350 46.5655 350 67V172C350 192.435 333.435 209 313 209H67C46.5655 209 30 192.435 30 172V67Z" fill="#0D6EFD"/>
</g>
<path d="M7 50C7 29.5655 23.5655 13 44 13H290C310.435 13 327 29.5655 327 50V155C327 175.435 310.435 192 290 192H44C23.5655 192 7 175.435 7 155V50Z" fill="#D1D1D1"/>
<path d="M37.7706 44V33.8182H42.0163C42.7786 33.8182 43.4167 33.9259 43.9304 34.1413C44.4474 34.3567 44.8352 34.6584 45.0938 35.0461C45.3556 35.4339 45.4865 35.883 45.4865 36.3934C45.4865 36.7812 45.4053 37.1276 45.2429 37.4325C45.0805 37.7341 44.8568 37.9844 44.5717 38.1832C44.2867 38.3821 43.9569 38.5213 43.5824 38.6008V38.7003C43.9934 38.7201 44.3729 38.8312 44.7209 39.0334C45.0722 39.2355 45.3539 39.5173 45.5661 39.8785C45.7782 40.2365 45.8842 40.6607 45.8842 41.1513C45.8842 41.6981 45.745 42.187 45.4666 42.6179C45.1882 43.0454 44.7855 43.3835 44.2585 43.6321C43.7315 43.8773 43.0919 44 42.3395 44H37.7706ZM40.2315 42.0163H41.7528C42.2865 42.0163 42.6792 41.9152 42.9311 41.713C43.1863 41.5109 43.3139 41.2291 43.3139 40.8679C43.3139 40.606 43.2526 40.3807 43.13 40.1917C43.0073 39.9995 42.8333 39.852 42.608 39.7493C42.3826 39.6432 42.1125 39.5902 41.7976 39.5902H40.2315V42.0163ZM40.2315 38.0042H41.5938C41.8622 38.0042 42.1009 37.9595 42.3097 37.87C42.5185 37.7805 42.6809 37.6513 42.7969 37.4822C42.9162 37.3132 42.9759 37.1094 42.9759 36.8707C42.9759 36.5293 42.8549 36.2609 42.6129 36.0653C42.371 35.8698 42.0445 35.772 41.6335 35.772H40.2315V38.0042Z" fill="white"/>
<path d="M46.7344 35.8167V33.8182H55.3402V35.8167H52.2528V44H49.8267V35.8167H46.7344Z" fill="white"/>
<path d="M65.3194 37.5071H62.8336C62.8005 37.2519 62.7325 37.0215 62.6298 36.816C62.527 36.6105 62.3912 36.4349 62.2221 36.289C62.0531 36.1432 61.8526 36.0322 61.6206 35.9559C61.3919 35.8764 61.1383 35.8366 60.8599 35.8366C60.3661 35.8366 59.9402 35.9576 59.5822 36.1996C59.2276 36.4415 58.9541 36.7912 58.7619 37.2486C58.573 37.7059 58.4785 38.2594 58.4785 38.9091C58.4785 39.5852 58.5746 40.152 58.7669 40.6094C58.9624 41.0634 59.2359 41.4065 59.5872 41.6385C59.9418 41.8672 60.3611 41.9815 60.845 41.9815C61.1168 41.9815 61.3637 41.9467 61.5858 41.8771C61.8111 41.8075 62.0083 41.7064 62.1774 41.5738C62.3497 41.438 62.4906 41.2739 62.6 41.0817C62.7127 40.8861 62.7905 40.6657 62.8336 40.4204L65.3194 40.4353C65.2763 40.8861 65.1454 41.3302 64.9267 41.7677C64.7112 42.2052 64.4146 42.6046 64.0368 42.9659C63.6589 43.3238 63.1982 43.6089 62.6547 43.821C62.1144 44.0331 61.4946 44.1392 60.7953 44.1392C59.8739 44.1392 59.0486 43.937 58.3194 43.5326C57.5936 43.125 57.0202 42.5317 56.5993 41.7528C56.1783 40.9739 55.9679 40.026 55.9679 38.9091C55.9679 37.7888 56.1816 36.8392 56.6092 36.0603C57.0368 35.2815 57.6151 34.6898 58.3443 34.2855C59.0735 33.8811 59.8904 33.679 60.7953 33.679C61.4118 33.679 61.9818 33.7651 62.5055 33.9375C63.0292 34.1065 63.4899 34.3551 63.8876 34.6832C64.2853 35.008 64.6085 35.4074 64.8571 35.8814C65.1056 36.3553 65.2598 36.8972 65.3194 37.5071Z" fill="white"/>
<path d="M72.8874 33.8182H75.3434V40.3856C75.3434 41.1446 75.1628 41.8058 74.8015 42.3693C74.4402 42.9294 73.9364 43.3636 73.2901 43.6719C72.6438 43.9768 71.8931 44.1292 71.038 44.1292C70.1729 44.1292 69.4173 43.9768 68.771 43.6719C68.1246 43.3636 67.6225 42.9294 67.2646 42.3693C66.9066 41.8058 66.7276 41.1446 66.7276 40.3856V33.8182H69.1886V40.1719C69.1886 40.5232 69.2648 40.8364 69.4173 41.1115C69.573 41.3866 69.7901 41.602 70.0685 41.7578C70.347 41.9136 70.6701 41.9915 71.038 41.9915C71.4059 41.9915 71.7274 41.9136 72.0025 41.7578C72.2809 41.602 72.498 41.3866 72.6538 41.1115C72.8095 40.8364 72.8874 40.5232 72.8874 40.1719V33.8182Z" fill="white"/>
<path d="M82.3894 36.8707C82.3562 36.5061 82.2088 36.2228 81.9469 36.0206C81.6884 35.8151 81.3188 35.7123 80.8382 35.7123C80.5201 35.7123 80.2549 35.7538 80.0428 35.8366C79.8307 35.9195 79.6716 36.0338 79.5655 36.1797C79.4595 36.3222 79.4048 36.4862 79.4015 36.6719C79.3948 36.8243 79.4247 36.9585 79.4909 37.0746C79.5605 37.1906 79.66 37.2933 79.7892 37.3828C79.9218 37.469 80.0809 37.5452 80.2665 37.6115C80.4521 37.6778 80.6609 37.7358 80.8929 37.7855L81.7679 37.9844C82.2717 38.0937 82.7159 38.2396 83.1003 38.4219C83.4881 38.6041 83.8129 38.8212 84.0748 39.0731C84.3399 39.325 84.5404 39.615 84.6763 39.9432C84.8122 40.2713 84.8818 40.6392 84.8851 41.0469C84.8818 41.6898 84.7194 42.2417 84.3979 42.7024C84.0764 43.1631 83.6141 43.5161 83.0108 43.7613C82.4109 44.0066 81.6867 44.1292 80.8382 44.1292C79.9864 44.1292 79.244 44.0016 78.611 43.7464C77.9779 43.4912 77.4857 43.1034 77.1344 42.5831C76.7831 42.0627 76.6025 41.4048 76.5925 40.6094H78.949C78.9689 40.9375 79.0568 41.2109 79.2125 41.4297C79.3683 41.6484 79.5821 41.8141 79.8539 41.9268C80.129 42.0395 80.4471 42.0959 80.8084 42.0959C81.1399 42.0959 81.4216 42.0511 81.6536 41.9616C81.8889 41.8721 82.0695 41.7478 82.1955 41.5888C82.3214 41.4297 82.3861 41.2474 82.3894 41.0419C82.3861 40.8496 82.3264 40.6856 82.2104 40.5497C82.0944 40.4105 81.9154 40.2912 81.6735 40.1917C81.4348 40.089 81.1299 39.9945 80.7587 39.9084L79.6948 39.6598C78.8132 39.4576 78.1188 39.1311 77.6117 38.6804C77.1046 38.2263 76.8527 37.6131 76.856 36.8409C76.8527 36.2112 77.0217 35.6593 77.3631 35.1853C77.7045 34.7114 78.1768 34.3418 78.78 34.0767C79.3832 33.8115 80.071 33.679 80.8432 33.679C81.632 33.679 82.3165 33.8132 82.8965 34.0817C83.4798 34.3468 83.9322 34.7197 84.2537 35.2003C84.5752 35.6808 84.7393 36.2377 84.7459 36.8707H82.3894Z" fill="white"/>
<path d="M89.8915 44H86.128V33.8182H89.8865C90.9239 33.8182 91.8172 34.022 92.5662 34.4297C93.3186 34.834 93.8986 35.4174 94.3063 36.1797C94.714 36.9387 94.9178 37.8468 94.9178 38.9041C94.9178 39.9647 94.714 40.8762 94.3063 41.6385C93.9019 42.4008 93.3236 42.9858 92.5712 43.3934C91.8188 43.7978 90.9256 44 89.8915 44ZM88.589 41.902H89.7971C90.3671 41.902 90.8494 41.8058 91.2438 41.6136C91.6415 41.4181 91.9415 41.1015 92.1436 40.664C92.3491 40.2232 92.4519 39.6366 92.4519 38.9041C92.4519 38.1716 92.3491 37.5883 92.1436 37.1541C91.9382 36.7166 91.6349 36.4017 91.2338 36.2095C90.8361 36.0139 90.3456 35.9162 89.7623 35.9162H88.589V41.902Z" fill="white"/>
<path d="M95.5566 35.8167V33.8182H104.162V35.8167H101.075V44H98.649V35.8167H95.5566Z" fill="white"/>
<path fill-rule="evenodd" clip-rule="evenodd" d="M214.918 79.3778L250.075 93.7597L262.399 88.9806L272.101 106.979H282.258L295.56 82.2208L296.44 82.6941L282.856 107.979H271.504L261.938 90.2321L250.065 94.8361L215.319 80.6222L193.293 115.807L183.294 108.103L151.486 131.109L120.135 107.944L100.136 103.562L79.9023 126.175L54.7483 143.574L36.7884 135.187L37.2116 134.281L54.6514 142.426L79.2361 125.42L99.7796 102.46L120.557 107.013L151.492 129.87L183.313 106.855L193.03 114.342L214.918 79.3778Z" fill="#0D6EFD"/>
<defs>
<filter id="filter0_f_49_377" x="0" y="0" width="380" height="239" filterUnits="userSpaceOnUse" color-interpolation-filters="sRGB">
<feFlood flood-opacity="0" result="BackgroundImageFix"/>
<feBlend mode="normal" in="SourceGraphic" in2="BackgroundImageFix" result="shape"/>
<feGaussianBlur stdDeviation="15" result="effect1_foregroundBlur_49_377"/>
</filter>
</defs>
</svg>
