<svg width="50" height="39" viewBox="0 0 50 39" fill="none" xmlns="http://www.w3.org/2000/svg">
<path d="M0 8C0 3.58172 3.58172 0 8 0H42C46.4183 0 50 3.58172 50 8V16C50 20.4183 46.4183 24 42 24H8C3.58172 24 0 20.4183 0 16V8Z" fill="url(#paint0_linear_195_444)"/>
<path d="M32 39L38.9282 24H25.0718L32 39Z" fill="url(#paint1_linear_195_444)"/>
<path d="M9.4082 5.83105H11.8652V12.4219C11.8652 13.4678 11.8957 14.1457 11.9565 14.4556C12.0617 14.9536 12.3107 15.3548 12.7036 15.6592C13.1021 15.958 13.6444 16.1074 14.3306 16.1074C15.0278 16.1074 15.5535 15.9663 15.9077 15.6841C16.2619 15.3963 16.4749 15.0449 16.5469 14.6299C16.6188 14.2148 16.6548 13.5259 16.6548 12.563V5.83105H19.1118V12.2227C19.1118 13.6836 19.0454 14.7157 18.9126 15.3188C18.7798 15.922 18.5335 16.4312 18.1738 16.8462C17.8197 17.2612 17.3438 17.5933 16.7461 17.8423C16.1484 18.0858 15.3682 18.2075 14.4053 18.2075C13.2432 18.2075 12.3605 18.0747 11.7573 17.8091C11.1597 17.5379 10.6865 17.1893 10.3379 16.7632C9.98926 16.3315 9.7596 15.8805 9.64893 15.4102C9.48844 14.7129 9.4082 13.6836 9.4082 12.3223V5.83105Z" fill="black"/>
<path d="M21.71 18V5.83105H25.6528C27.147 5.83105 28.1209 5.89193 28.5747 6.01367C29.272 6.19629 29.8558 6.59473 30.3262 7.20898C30.7965 7.81771 31.0317 8.60628 31.0317 9.57471C31.0317 10.3218 30.8962 10.9499 30.625 11.459C30.3538 11.9681 30.008 12.3693 29.5874 12.6626C29.1724 12.9504 28.749 13.1413 28.3174 13.2354C27.7308 13.3516 26.8813 13.4097 25.769 13.4097H24.167V18H21.71ZM24.167 7.88965V11.3428H25.5117C26.4801 11.3428 27.1276 11.2791 27.4541 11.1519C27.7806 11.0246 28.0352 10.8254 28.2178 10.5542C28.4059 10.283 28.5 9.96761 28.5 9.60791C28.5 9.1652 28.37 8.79997 28.1099 8.51221C27.8498 8.22445 27.5205 8.0446 27.1221 7.97266C26.8288 7.91732 26.2394 7.88965 25.354 7.88965H24.167Z" fill="black"/>
<path d="M44 12C44 14.2091 42.2091 16 40 16C37.7909 16 36 14.2091 36 12C36 9.79086 37.7909 8 40 8C42.2091 8 44 9.79086 44 12Z" fill="#00FF29"/>
<defs>
<linearGradient id="paint0_linear_195_444" x1="32" y1="78.5" x2="11.5" y2="-4.5" gradientUnits="userSpaceOnUse">
<stop stop-color="white"/>
<stop offset="1" stop-color="white"/>
</linearGradient>
<linearGradient id="paint1_linear_195_444" x1="32" y1="78.5" x2="11.5" y2="-4.5" gradientUnits="userSpaceOnUse">
<stop stop-color="white"/>
<stop offset="1" stop-color="white"/>
</linearGradient>
</defs>
</svg>
