<svg width="50" height="24" viewBox="0 0 50 24" fill="none" xmlns="http://www.w3.org/2000/svg">
<path d="M0 8C0 3.58172 3.58172 0 8 0H42C46.4183 0 50 3.58172 50 8V16C50 20.4183 46.4183 24 42 24H8C3.58172 24 0 20.4183 0 16V8Z" fill="#D9D9D9"/>
<path d="M10.2202 6.83105H12.6772V13.4219C12.6772 14.4678 12.7077 15.1457 12.7686 15.4556C12.8737 15.9536 13.1227 16.3548 13.5156 16.6592C13.9141 16.958 14.4564 17.1074 15.1426 17.1074C15.8398 17.1074 16.3656 16.9663 16.7197 16.6841C17.0739 16.3963 17.2869 16.0449 17.3589 15.6299C17.4308 15.2148 17.4668 14.5259 17.4668 13.563V6.83105H19.9238V13.2227C19.9238 14.6836 19.8574 15.7157 19.7246 16.3188C19.5918 16.922 19.3455 17.4312 18.9858 17.8462C18.6317 18.2612 18.1558 18.5933 17.5581 18.8423C16.9604 19.0858 16.1802 19.2075 15.2173 19.2075C14.0552 19.2075 13.1725 19.0747 12.5693 18.8091C11.9717 18.5379 11.4985 18.1893 11.1499 17.7632C10.8013 17.3315 10.5716 16.8805 10.4609 16.4102C10.3005 15.7129 10.2202 14.6836 10.2202 13.3223V6.83105Z" fill="black"/>
<path d="M22.522 19V6.83105H26.4648C27.959 6.83105 28.9329 6.89193 29.3867 7.01367C30.084 7.19629 30.6678 7.59473 31.1382 8.20898C31.6086 8.81771 31.8438 9.60628 31.8438 10.5747C31.8438 11.3218 31.7082 11.9499 31.437 12.459C31.1659 12.9681 30.82 13.3693 30.3994 13.6626C29.9844 13.9504 29.561 14.1413 29.1294 14.2354C28.5428 14.3516 27.6934 14.4097 26.5811 14.4097H24.979V19H22.522ZM24.979 8.88965V12.3428H26.3237C27.2922 12.3428 27.9396 12.2791 28.2661 12.1519C28.5926 12.0246 28.8472 11.8254 29.0298 11.5542C29.2179 11.283 29.312 10.9676 29.312 10.6079C29.312 10.1652 29.182 9.79997 28.9219 9.51221C28.6618 9.22445 28.3325 9.0446 27.9341 8.97266C27.6408 8.91732 27.0514 8.88965 26.166 8.88965H24.979Z" fill="black"/>
<path d="M45 12C45 14.2091 43.2091 16 41 16C38.7909 16 37 14.2091 37 12C37 9.79086 38.7909 8 41 8C43.2091 8 45 9.79086 45 12Z" fill="#00FF29"/>
</svg>
