<svg width="60" height="39" viewBox="0 0 60 39" fill="none" xmlns="http://www.w3.org/2000/svg">
<path d="M0 8C0 3.58172 3.58172 0 8 0H52C56.4183 0 60 3.58172 60 8V16C60 20.4183 56.4183 24 52 24H8C3.58172 24 0 20.4183 0 16V8Z" fill="white"/>
<path d="M40 39L46.9297 24H33.0836L40 39Z" fill="white"/>
<path d="M6.34766 7.69434H9.78174C10.5562 7.69434 11.1465 7.75358 11.5527 7.87207C12.0986 8.03288 12.5662 8.31852 12.9556 8.729C13.3449 9.13949 13.6411 9.64307 13.8442 10.2397C14.0474 10.8322 14.1489 11.5643 14.1489 12.436C14.1489 13.202 14.0537 13.8621 13.8633 14.4165C13.6305 15.0936 13.2983 15.6416 12.8667 16.0605C12.5409 16.3779 12.1007 16.6255 11.5464 16.8032C11.1317 16.9344 10.5773 17 9.8833 17H6.34766V7.69434ZM8.22656 9.26855V15.4321H9.62939C10.1541 15.4321 10.5329 15.4025 10.7656 15.3433C11.0703 15.2671 11.3221 15.138 11.521 14.9561C11.7241 14.7741 11.8892 14.4757 12.0161 14.061C12.1431 13.6421 12.2065 13.0729 12.2065 12.3535C12.2065 11.6341 12.1431 11.0819 12.0161 10.6968C11.8892 10.3117 11.7114 10.0112 11.4829 9.79541C11.2544 9.57959 10.9645 9.43359 10.6133 9.35742C10.3509 9.29818 9.83675 9.26855 9.0708 9.26855H8.22656Z" fill="black"/>
<path d="M15.3677 12.4043C15.3677 11.4564 15.5094 10.6608 15.793 10.0176C16.0046 9.54362 16.2923 9.11833 16.6562 8.7417C17.0244 8.36507 17.4264 8.08577 17.8623 7.90381C18.4421 7.65837 19.1107 7.53564 19.8682 7.53564C21.2393 7.53564 22.3353 7.96094 23.1562 8.81152C23.9814 9.66211 24.394 10.8449 24.394 12.3599C24.394 13.8621 23.9857 15.0386 23.1689 15.8892C22.3522 16.7355 21.2604 17.1587 19.8936 17.1587C18.5098 17.1587 17.4095 16.7376 16.5928 15.8955C15.776 15.0492 15.3677 13.8854 15.3677 12.4043ZM17.3037 12.3408C17.3037 13.3945 17.547 14.1943 18.0337 14.7402C18.5203 15.2819 19.1382 15.5527 19.8872 15.5527C20.6362 15.5527 21.2498 15.284 21.728 14.7466C22.2104 14.2049 22.4517 13.3945 22.4517 12.3154C22.4517 11.249 22.2168 10.4535 21.7471 9.92871C21.2816 9.40397 20.6616 9.1416 19.8872 9.1416C19.1128 9.1416 18.4886 9.4082 18.0146 9.94141C17.5407 10.4704 17.3037 11.2702 17.3037 12.3408Z" fill="black"/>
<path d="M27.187 17L24.9653 7.69434H26.8887L28.2915 14.0864L29.9927 7.69434H32.2271L33.8584 14.1943L35.2866 7.69434H37.1782L34.9185 17H32.9253L31.0718 10.043L29.2246 17H27.187Z" fill="black"/>
<path d="M38.1621 17V7.69434H39.9902L43.7988 13.9087V7.69434H45.5444V17H43.6592L39.9077 10.9316V17H38.1621Z" fill="black"/>
<path d="M56 12C56 14.2091 54.2091 16 52 16C49.7909 16 48 14.2091 48 12C48 9.79086 49.7909 8 52 8C54.2091 8 56 9.79086 56 12Z" fill="#FF0000"/>
</svg>
