<svg width="60" height="39" viewBox="0 0 60 39" fill="none" xmlns="http://www.w3.org/2000/svg">
<path d="M0 8C0 3.58172 3.58172 0 8 0H52C56.4183 0 60 3.58172 60 8V16C60 20.4183 56.4183 24 52 24H8C3.58172 24 0 20.4183 0 16V8Z" fill="#0D6EFD"/>
<path d="M40 39L46.9282 24H33.0718L40 39Z" fill="#0D6EFD"/>
<path d="M7.85938 7.41016H11.0293C11.7441 7.41016 12.2891 7.46484 12.6641 7.57422C13.168 7.72266 13.5996 7.98633 13.959 8.36523C14.3184 8.74414 14.5918 9.20898 14.7793 9.75977C14.9668 10.3066 15.0605 10.9824 15.0605 11.7871C15.0605 12.4941 14.9727 13.1035 14.7969 13.6152C14.582 14.2402 14.2754 14.7461 13.877 15.1328C13.5762 15.4258 13.1699 15.6543 12.6582 15.8184C12.2754 15.9395 11.7637 16 11.123 16H7.85938V7.41016ZM9.59375 8.86328V14.5527H10.8887C11.373 14.5527 11.7227 14.5254 11.9375 14.4707C12.2188 14.4004 12.4512 14.2812 12.6348 14.1133C12.8223 13.9453 12.9746 13.6699 13.0918 13.2871C13.209 12.9004 13.2676 12.375 13.2676 11.7109C13.2676 11.0469 13.209 10.5371 13.0918 10.1816C12.9746 9.82617 12.8105 9.54883 12.5996 9.34961C12.3887 9.15039 12.1211 9.01562 11.7969 8.94531C11.5547 8.89062 11.0801 8.86328 10.373 8.86328H9.59375Z" fill="white"/>
<path d="M16.1855 11.7578C16.1855 10.8828 16.3164 10.1484 16.5781 9.55469C16.7734 9.11719 17.0391 8.72461 17.375 8.37695C17.7148 8.0293 18.0859 7.77148 18.4883 7.60352C19.0234 7.37695 19.6406 7.26367 20.3398 7.26367C21.6055 7.26367 22.6172 7.65625 23.375 8.44141C24.1367 9.22656 24.5176 10.3184 24.5176 11.7168C24.5176 13.1035 24.1406 14.1895 23.3867 14.9746C22.6328 15.7559 21.625 16.1465 20.3633 16.1465C19.0859 16.1465 18.0703 15.7578 17.3164 14.9805C16.5625 14.1992 16.1855 13.125 16.1855 11.7578ZM17.9727 11.6992C17.9727 12.6719 18.1973 13.4102 18.6465 13.9141C19.0957 14.4141 19.666 14.6641 20.3574 14.6641C21.0488 14.6641 21.6152 14.416 22.0566 13.9199C22.502 13.4199 22.7246 12.6719 22.7246 11.6758C22.7246 10.6914 22.5078 9.95703 22.0742 9.47266C21.6445 8.98828 21.0723 8.74609 20.3574 8.74609C19.6426 8.74609 19.0664 8.99219 18.6289 9.48438C18.1914 9.97266 17.9727 10.7109 17.9727 11.6992Z" fill="white"/>
<path d="M27.0957 16L25.0449 7.41016H26.8203L28.1152 13.3105L29.6855 7.41016H31.748L33.2539 13.4102L34.5723 7.41016H36.3184L34.2324 16H32.3926L30.6816 9.57812L28.9766 16H27.0957Z" fill="white"/>
<path d="M37.2266 16V7.41016H38.9141L42.4297 13.1465V7.41016H44.041V16H42.3008L38.8379 10.3984V16H37.2266Z" fill="white"/>
<path d="M56 12C56 14.2091 54.2091 16 52 16C49.7909 16 48 14.2091 48 12C48 9.79086 49.7909 8 52 8C54.2091 8 56 9.79086 56 12Z" fill="#FF0000"/>
</svg>
